<mxfile host="app.diagrams.net" modified="2020-09-21T04:15:56.632Z" agent="5.0 (Windows NT 10.0; Win64; x64) AppleWebKit/537.36 (KHTML, like Gecko) Chrome/85.0.4183.102 Safari/537.36" etag="3rJm7obcCW_jCcr-Qkk8" version="13.7.3" type="github">
  <diagram id="C5RBs43oDa-KdzZeNtuy" name="Page-1">
    <mxGraphModel dx="1252" dy="629" grid="1" gridSize="10" guides="1" tooltips="1" connect="1" arrows="1" fold="1" page="1" pageScale="1" pageWidth="827" pageHeight="1169" math="0" shadow="0">
      <root>
        <mxCell id="WIyWlLk6GJQsqaUBKTNV-0" />
        <mxCell id="WIyWlLk6GJQsqaUBKTNV-1" parent="WIyWlLk6GJQsqaUBKTNV-0" />
        <mxCell id="74G0N7CTCfDwMKJxQ2Cz-4" style="edgeStyle=none;rounded=0;orthogonalLoop=1;jettySize=auto;html=1;exitX=0.5;exitY=1;exitDx=0;exitDy=0;entryX=0.5;entryY=0;entryDx=0;entryDy=0;" edge="1" parent="WIyWlLk6GJQsqaUBKTNV-1" source="WIyWlLk6GJQsqaUBKTNV-3" target="74G0N7CTCfDwMKJxQ2Cz-0">
          <mxGeometry relative="1" as="geometry" />
        </mxCell>
        <mxCell id="WIyWlLk6GJQsqaUBKTNV-3" value="Start" style="rounded=1;whiteSpace=wrap;html=1;fontSize=12;glass=0;strokeWidth=1;shadow=0;" parent="WIyWlLk6GJQsqaUBKTNV-1" vertex="1">
          <mxGeometry x="30" y="30" width="120" height="40" as="geometry" />
        </mxCell>
        <mxCell id="74G0N7CTCfDwMKJxQ2Cz-3" style="edgeStyle=none;rounded=0;orthogonalLoop=1;jettySize=auto;html=1;exitX=0.5;exitY=1;exitDx=0;exitDy=0;entryX=0.5;entryY=0;entryDx=0;entryDy=0;" edge="1" parent="WIyWlLk6GJQsqaUBKTNV-1" source="74G0N7CTCfDwMKJxQ2Cz-0" target="74G0N7CTCfDwMKJxQ2Cz-2">
          <mxGeometry relative="1" as="geometry" />
        </mxCell>
        <mxCell id="74G0N7CTCfDwMKJxQ2Cz-0" value="Draw Self portrait" style="rounded=0;whiteSpace=wrap;html=1;" vertex="1" parent="WIyWlLk6GJQsqaUBKTNV-1">
          <mxGeometry x="30" y="100" width="120" height="40" as="geometry" />
        </mxCell>
        <mxCell id="74G0N7CTCfDwMKJxQ2Cz-2" value="end&amp;nbsp;" style="ellipse;whiteSpace=wrap;html=1;" vertex="1" parent="WIyWlLk6GJQsqaUBKTNV-1">
          <mxGeometry x="55" y="170" width="70" height="40" as="geometry" />
        </mxCell>
        <mxCell id="74G0N7CTCfDwMKJxQ2Cz-11" style="edgeStyle=none;rounded=0;orthogonalLoop=1;jettySize=auto;html=1;exitX=0.5;exitY=1;exitDx=0;exitDy=0;entryX=0.5;entryY=0;entryDx=0;entryDy=0;" edge="1" parent="WIyWlLk6GJQsqaUBKTNV-1" source="74G0N7CTCfDwMKJxQ2Cz-29" target="74G0N7CTCfDwMKJxQ2Cz-8">
          <mxGeometry relative="1" as="geometry" />
        </mxCell>
        <mxCell id="74G0N7CTCfDwMKJxQ2Cz-37" style="edgeStyle=none;rounded=0;orthogonalLoop=1;jettySize=auto;html=1;exitX=0.5;exitY=1;exitDx=0;exitDy=0;entryX=0.5;entryY=0;entryDx=0;entryDy=0;" edge="1" parent="WIyWlLk6GJQsqaUBKTNV-1" source="74G0N7CTCfDwMKJxQ2Cz-5" target="74G0N7CTCfDwMKJxQ2Cz-8">
          <mxGeometry relative="1" as="geometry" />
        </mxCell>
        <mxCell id="74G0N7CTCfDwMKJxQ2Cz-5" value="Start" style="rounded=1;whiteSpace=wrap;html=1;" vertex="1" parent="WIyWlLk6GJQsqaUBKTNV-1">
          <mxGeometry x="220" y="35" width="80" height="30" as="geometry" />
        </mxCell>
        <mxCell id="74G0N7CTCfDwMKJxQ2Cz-14" style="edgeStyle=none;rounded=0;orthogonalLoop=1;jettySize=auto;html=1;exitX=0.5;exitY=1;exitDx=0;exitDy=0;entryX=0.5;entryY=0;entryDx=0;entryDy=0;" edge="1" parent="WIyWlLk6GJQsqaUBKTNV-1" source="74G0N7CTCfDwMKJxQ2Cz-6" target="74G0N7CTCfDwMKJxQ2Cz-10">
          <mxGeometry relative="1" as="geometry" />
        </mxCell>
        <mxCell id="74G0N7CTCfDwMKJxQ2Cz-6" value="Draw body" style="rounded=0;whiteSpace=wrap;html=1;" vertex="1" parent="WIyWlLk6GJQsqaUBKTNV-1">
          <mxGeometry x="220" y="210" width="80" height="40" as="geometry" />
        </mxCell>
        <mxCell id="74G0N7CTCfDwMKJxQ2Cz-13" style="edgeStyle=none;rounded=0;orthogonalLoop=1;jettySize=auto;html=1;exitX=0.5;exitY=1;exitDx=0;exitDy=0;entryX=0.5;entryY=0;entryDx=0;entryDy=0;" edge="1" parent="WIyWlLk6GJQsqaUBKTNV-1" source="74G0N7CTCfDwMKJxQ2Cz-7" target="74G0N7CTCfDwMKJxQ2Cz-6">
          <mxGeometry relative="1" as="geometry" />
        </mxCell>
        <mxCell id="74G0N7CTCfDwMKJxQ2Cz-7" value="Draw hair" style="rounded=0;whiteSpace=wrap;html=1;" vertex="1" parent="WIyWlLk6GJQsqaUBKTNV-1">
          <mxGeometry x="220" y="150" width="80" height="40" as="geometry" />
        </mxCell>
        <mxCell id="74G0N7CTCfDwMKJxQ2Cz-12" style="edgeStyle=none;rounded=0;orthogonalLoop=1;jettySize=auto;html=1;exitX=0.5;exitY=1;exitDx=0;exitDy=0;entryX=0.5;entryY=0;entryDx=0;entryDy=0;" edge="1" parent="WIyWlLk6GJQsqaUBKTNV-1" source="74G0N7CTCfDwMKJxQ2Cz-8" target="74G0N7CTCfDwMKJxQ2Cz-7">
          <mxGeometry relative="1" as="geometry" />
        </mxCell>
        <mxCell id="74G0N7CTCfDwMKJxQ2Cz-8" value="Draw face" style="rounded=0;whiteSpace=wrap;html=1;" vertex="1" parent="WIyWlLk6GJQsqaUBKTNV-1">
          <mxGeometry x="220" y="90" width="80" height="40" as="geometry" />
        </mxCell>
        <mxCell id="74G0N7CTCfDwMKJxQ2Cz-10" value="End" style="ellipse;whiteSpace=wrap;html=1;" vertex="1" parent="WIyWlLk6GJQsqaUBKTNV-1">
          <mxGeometry x="225" y="280" width="70" height="30" as="geometry" />
        </mxCell>
        <mxCell id="74G0N7CTCfDwMKJxQ2Cz-20" style="edgeStyle=none;rounded=0;orthogonalLoop=1;jettySize=auto;html=1;exitX=0.5;exitY=1;exitDx=0;exitDy=0;entryX=0.5;entryY=0;entryDx=0;entryDy=0;" edge="1" parent="WIyWlLk6GJQsqaUBKTNV-1" source="74G0N7CTCfDwMKJxQ2Cz-15" target="74G0N7CTCfDwMKJxQ2Cz-17">
          <mxGeometry relative="1" as="geometry" />
        </mxCell>
        <mxCell id="74G0N7CTCfDwMKJxQ2Cz-15" value="Start A1" style="rounded=1;whiteSpace=wrap;html=1;" vertex="1" parent="WIyWlLk6GJQsqaUBKTNV-1">
          <mxGeometry x="363.75" y="32.5" width="90" height="35" as="geometry" />
        </mxCell>
        <mxCell id="74G0N7CTCfDwMKJxQ2Cz-22" style="edgeStyle=none;rounded=0;orthogonalLoop=1;jettySize=auto;html=1;exitX=0.5;exitY=1;exitDx=0;exitDy=0;entryX=0.5;entryY=0;entryDx=0;entryDy=0;" edge="1" parent="WIyWlLk6GJQsqaUBKTNV-1" source="74G0N7CTCfDwMKJxQ2Cz-16" target="74G0N7CTCfDwMKJxQ2Cz-18">
          <mxGeometry relative="1" as="geometry" />
        </mxCell>
        <mxCell id="74G0N7CTCfDwMKJxQ2Cz-16" value="Draw nose" style="rounded=0;whiteSpace=wrap;html=1;" vertex="1" parent="WIyWlLk6GJQsqaUBKTNV-1">
          <mxGeometry x="347.5" y="140" width="122.5" height="30" as="geometry" />
        </mxCell>
        <mxCell id="74G0N7CTCfDwMKJxQ2Cz-21" style="edgeStyle=none;rounded=0;orthogonalLoop=1;jettySize=auto;html=1;exitX=0.5;exitY=1;exitDx=0;exitDy=0;entryX=0.5;entryY=0;entryDx=0;entryDy=0;" edge="1" parent="WIyWlLk6GJQsqaUBKTNV-1" source="74G0N7CTCfDwMKJxQ2Cz-17" target="74G0N7CTCfDwMKJxQ2Cz-16">
          <mxGeometry relative="1" as="geometry" />
        </mxCell>
        <mxCell id="74G0N7CTCfDwMKJxQ2Cz-17" value="Draw eyes" style="rounded=0;whiteSpace=wrap;html=1;" vertex="1" parent="WIyWlLk6GJQsqaUBKTNV-1">
          <mxGeometry x="347.5" y="90" width="122.5" height="30" as="geometry" />
        </mxCell>
        <mxCell id="74G0N7CTCfDwMKJxQ2Cz-24" style="edgeStyle=none;rounded=0;orthogonalLoop=1;jettySize=auto;html=1;exitX=0.5;exitY=1;exitDx=0;exitDy=0;entryX=0.503;entryY=-0.083;entryDx=0;entryDy=0;entryPerimeter=0;" edge="1" parent="WIyWlLk6GJQsqaUBKTNV-1" source="74G0N7CTCfDwMKJxQ2Cz-18" target="74G0N7CTCfDwMKJxQ2Cz-23">
          <mxGeometry relative="1" as="geometry" />
        </mxCell>
        <mxCell id="74G0N7CTCfDwMKJxQ2Cz-18" value="Draw mouth" style="rounded=0;whiteSpace=wrap;html=1;" vertex="1" parent="WIyWlLk6GJQsqaUBKTNV-1">
          <mxGeometry x="347.5" y="200" width="122.5" height="30" as="geometry" />
        </mxCell>
        <mxCell id="74G0N7CTCfDwMKJxQ2Cz-19" style="edgeStyle=none;rounded=0;orthogonalLoop=1;jettySize=auto;html=1;entryX=1;entryY=0.5;entryDx=0;entryDy=0;" edge="1" parent="WIyWlLk6GJQsqaUBKTNV-1" source="74G0N7CTCfDwMKJxQ2Cz-17" target="74G0N7CTCfDwMKJxQ2Cz-17">
          <mxGeometry relative="1" as="geometry" />
        </mxCell>
        <mxCell id="74G0N7CTCfDwMKJxQ2Cz-27" style="edgeStyle=none;rounded=0;orthogonalLoop=1;jettySize=auto;html=1;exitX=0.5;exitY=1;exitDx=0;exitDy=0;" edge="1" parent="WIyWlLk6GJQsqaUBKTNV-1" source="74G0N7CTCfDwMKJxQ2Cz-23" target="74G0N7CTCfDwMKJxQ2Cz-25">
          <mxGeometry relative="1" as="geometry" />
        </mxCell>
        <mxCell id="74G0N7CTCfDwMKJxQ2Cz-23" value="Draw ear" style="rounded=0;whiteSpace=wrap;html=1;" vertex="1" parent="WIyWlLk6GJQsqaUBKTNV-1">
          <mxGeometry x="347.5" y="250" width="120" height="30" as="geometry" />
        </mxCell>
        <mxCell id="74G0N7CTCfDwMKJxQ2Cz-25" value="End" style="ellipse;whiteSpace=wrap;html=1;" vertex="1" parent="WIyWlLk6GJQsqaUBKTNV-1">
          <mxGeometry x="373.12" y="300" width="73.75" height="30" as="geometry" />
        </mxCell>
        <mxCell id="74G0N7CTCfDwMKJxQ2Cz-29" value="A1" style="text;html=1;strokeColor=none;fillColor=none;align=center;verticalAlign=middle;whiteSpace=wrap;rounded=0;" vertex="1" parent="WIyWlLk6GJQsqaUBKTNV-1">
          <mxGeometry x="210" y="90" width="40" height="20" as="geometry" />
        </mxCell>
        <mxCell id="74G0N7CTCfDwMKJxQ2Cz-31" value="A2" style="text;html=1;strokeColor=none;fillColor=none;align=center;verticalAlign=middle;whiteSpace=wrap;rounded=0;" vertex="1" parent="WIyWlLk6GJQsqaUBKTNV-1">
          <mxGeometry x="210" y="150" width="40" height="20" as="geometry" />
        </mxCell>
        <mxCell id="74G0N7CTCfDwMKJxQ2Cz-32" value="A3" style="text;html=1;strokeColor=none;fillColor=none;align=center;verticalAlign=middle;whiteSpace=wrap;rounded=0;" vertex="1" parent="WIyWlLk6GJQsqaUBKTNV-1">
          <mxGeometry x="210" y="210" width="40" height="20" as="geometry" />
        </mxCell>
        <mxCell id="74G0N7CTCfDwMKJxQ2Cz-33" value="A1.1" style="text;html=1;strokeColor=none;fillColor=none;align=center;verticalAlign=middle;whiteSpace=wrap;rounded=0;" vertex="1" parent="WIyWlLk6GJQsqaUBKTNV-1">
          <mxGeometry x="340" y="90" width="40" height="20" as="geometry" />
        </mxCell>
        <mxCell id="74G0N7CTCfDwMKJxQ2Cz-34" value="A1.2" style="text;html=1;strokeColor=none;fillColor=none;align=center;verticalAlign=middle;whiteSpace=wrap;rounded=0;" vertex="1" parent="WIyWlLk6GJQsqaUBKTNV-1">
          <mxGeometry x="347.5" y="140" width="32.5" height="20" as="geometry" />
        </mxCell>
        <mxCell id="74G0N7CTCfDwMKJxQ2Cz-35" value="A1.3" style="text;html=1;strokeColor=none;fillColor=none;align=center;verticalAlign=middle;whiteSpace=wrap;rounded=0;" vertex="1" parent="WIyWlLk6GJQsqaUBKTNV-1">
          <mxGeometry x="350" y="200" width="30" height="20" as="geometry" />
        </mxCell>
        <mxCell id="74G0N7CTCfDwMKJxQ2Cz-36" value="&#xa;&#xa;&lt;span style=&quot;color: rgb(0, 0, 0); font-family: helvetica; font-size: 12px; font-style: normal; font-weight: 400; letter-spacing: normal; text-align: center; text-indent: 0px; text-transform: none; word-spacing: 0px; background-color: rgb(248, 249, 250); display: inline; float: none;&quot;&gt;A1.4&lt;/span&gt;&#xa;&#xa;" style="text;html=1;strokeColor=none;fillColor=none;align=center;verticalAlign=middle;whiteSpace=wrap;rounded=0;" vertex="1" parent="WIyWlLk6GJQsqaUBKTNV-1">
          <mxGeometry x="350" y="250" width="30" height="20" as="geometry" />
        </mxCell>
        <mxCell id="74G0N7CTCfDwMKJxQ2Cz-46" style="edgeStyle=none;rounded=0;orthogonalLoop=1;jettySize=auto;html=1;exitX=0.5;exitY=1;exitDx=0;exitDy=0;entryX=0.5;entryY=0;entryDx=0;entryDy=0;" edge="1" parent="WIyWlLk6GJQsqaUBKTNV-1" source="74G0N7CTCfDwMKJxQ2Cz-38" target="74G0N7CTCfDwMKJxQ2Cz-42">
          <mxGeometry relative="1" as="geometry" />
        </mxCell>
        <mxCell id="74G0N7CTCfDwMKJxQ2Cz-38" value="Start A2" style="rounded=1;whiteSpace=wrap;html=1;" vertex="1" parent="WIyWlLk6GJQsqaUBKTNV-1">
          <mxGeometry x="35" y="380" width="70" height="30" as="geometry" />
        </mxCell>
        <mxCell id="74G0N7CTCfDwMKJxQ2Cz-60" style="edgeStyle=none;rounded=0;orthogonalLoop=1;jettySize=auto;html=1;exitX=0.5;exitY=1;exitDx=0;exitDy=0;entryX=0.5;entryY=0;entryDx=0;entryDy=0;" edge="1" parent="WIyWlLk6GJQsqaUBKTNV-1" source="74G0N7CTCfDwMKJxQ2Cz-39" target="74G0N7CTCfDwMKJxQ2Cz-52">
          <mxGeometry relative="1" as="geometry" />
        </mxCell>
        <mxCell id="74G0N7CTCfDwMKJxQ2Cz-39" value="Draw arms" style="rounded=0;whiteSpace=wrap;html=1;" vertex="1" parent="WIyWlLk6GJQsqaUBKTNV-1">
          <mxGeometry x="30" y="860" width="120" height="40" as="geometry" />
        </mxCell>
        <mxCell id="74G0N7CTCfDwMKJxQ2Cz-59" style="edgeStyle=none;rounded=0;orthogonalLoop=1;jettySize=auto;html=1;exitX=0.5;exitY=1;exitDx=0;exitDy=0;entryX=0.5;entryY=0;entryDx=0;entryDy=0;" edge="1" parent="WIyWlLk6GJQsqaUBKTNV-1" source="74G0N7CTCfDwMKJxQ2Cz-40" target="74G0N7CTCfDwMKJxQ2Cz-39">
          <mxGeometry relative="1" as="geometry" />
        </mxCell>
        <mxCell id="74G0N7CTCfDwMKJxQ2Cz-40" value="Draw t-shirt" style="rounded=0;whiteSpace=wrap;html=1;" vertex="1" parent="WIyWlLk6GJQsqaUBKTNV-1">
          <mxGeometry x="30" y="800" width="120" height="36" as="geometry" />
        </mxCell>
        <mxCell id="74G0N7CTCfDwMKJxQ2Cz-48" style="edgeStyle=none;rounded=0;orthogonalLoop=1;jettySize=auto;html=1;exitX=0.5;exitY=1;exitDx=0;exitDy=0;entryX=0.5;entryY=0;entryDx=0;entryDy=0;" edge="1" parent="WIyWlLk6GJQsqaUBKTNV-1" source="74G0N7CTCfDwMKJxQ2Cz-41" target="74G0N7CTCfDwMKJxQ2Cz-45">
          <mxGeometry relative="1" as="geometry" />
        </mxCell>
        <mxCell id="74G0N7CTCfDwMKJxQ2Cz-41" value="Draw pigtails" style="rounded=0;whiteSpace=wrap;html=1;" vertex="1" parent="WIyWlLk6GJQsqaUBKTNV-1">
          <mxGeometry x="25" y="500" width="115" height="40" as="geometry" />
        </mxCell>
        <mxCell id="74G0N7CTCfDwMKJxQ2Cz-47" style="edgeStyle=none;rounded=0;orthogonalLoop=1;jettySize=auto;html=1;exitX=0.5;exitY=1;exitDx=0;exitDy=0;entryX=1.329;entryY=-0.021;entryDx=0;entryDy=0;entryPerimeter=0;" edge="1" parent="WIyWlLk6GJQsqaUBKTNV-1" source="74G0N7CTCfDwMKJxQ2Cz-42" target="74G0N7CTCfDwMKJxQ2Cz-44">
          <mxGeometry relative="1" as="geometry" />
        </mxCell>
        <mxCell id="74G0N7CTCfDwMKJxQ2Cz-42" value="Draw hair" style="rounded=0;whiteSpace=wrap;html=1;" vertex="1" parent="WIyWlLk6GJQsqaUBKTNV-1">
          <mxGeometry x="17.5" y="435" width="105" height="30" as="geometry" />
        </mxCell>
        <mxCell id="74G0N7CTCfDwMKJxQ2Cz-43" value="A2.1" style="text;html=1;strokeColor=none;fillColor=none;align=center;verticalAlign=middle;whiteSpace=wrap;rounded=0;" vertex="1" parent="WIyWlLk6GJQsqaUBKTNV-1">
          <mxGeometry x="15" y="430" width="40" height="20" as="geometry" />
        </mxCell>
        <mxCell id="74G0N7CTCfDwMKJxQ2Cz-44" value="A2.2" style="text;html=1;strokeColor=none;fillColor=none;align=center;verticalAlign=middle;whiteSpace=wrap;rounded=0;" vertex="1" parent="WIyWlLk6GJQsqaUBKTNV-1">
          <mxGeometry x="20" y="500" width="40" height="20" as="geometry" />
        </mxCell>
        <mxCell id="74G0N7CTCfDwMKJxQ2Cz-45" value="End" style="ellipse;whiteSpace=wrap;html=1;" vertex="1" parent="WIyWlLk6GJQsqaUBKTNV-1">
          <mxGeometry x="43.75" y="564" width="77.5" height="40" as="geometry" />
        </mxCell>
        <mxCell id="74G0N7CTCfDwMKJxQ2Cz-64" style="edgeStyle=none;rounded=0;orthogonalLoop=1;jettySize=auto;html=1;exitX=0.5;exitY=1;exitDx=0;exitDy=0;entryX=0.5;entryY=0;entryDx=0;entryDy=0;" edge="1" parent="WIyWlLk6GJQsqaUBKTNV-1" source="74G0N7CTCfDwMKJxQ2Cz-49" target="74G0N7CTCfDwMKJxQ2Cz-63">
          <mxGeometry relative="1" as="geometry" />
        </mxCell>
        <mxCell id="74G0N7CTCfDwMKJxQ2Cz-49" value="Start A3" style="rounded=1;whiteSpace=wrap;html=1;" vertex="1" parent="WIyWlLk6GJQsqaUBKTNV-1">
          <mxGeometry x="47.5" y="690" width="77.5" height="30" as="geometry" />
        </mxCell>
        <mxCell id="74G0N7CTCfDwMKJxQ2Cz-69" style="edgeStyle=none;rounded=0;orthogonalLoop=1;jettySize=auto;html=1;exitX=0.5;exitY=1;exitDx=0;exitDy=0;entryX=0.5;entryY=0;entryDx=0;entryDy=0;" edge="1" parent="WIyWlLk6GJQsqaUBKTNV-1" source="74G0N7CTCfDwMKJxQ2Cz-50" target="74G0N7CTCfDwMKJxQ2Cz-68">
          <mxGeometry relative="1" as="geometry" />
        </mxCell>
        <mxCell id="74G0N7CTCfDwMKJxQ2Cz-50" value="Draw shoes" style="rounded=0;whiteSpace=wrap;html=1;" vertex="1" parent="WIyWlLk6GJQsqaUBKTNV-1">
          <mxGeometry x="35" y="1060" width="120" height="40" as="geometry" />
        </mxCell>
        <mxCell id="74G0N7CTCfDwMKJxQ2Cz-62" style="edgeStyle=none;rounded=0;orthogonalLoop=1;jettySize=auto;html=1;exitX=0.5;exitY=1;exitDx=0;exitDy=0;" edge="1" parent="WIyWlLk6GJQsqaUBKTNV-1" source="74G0N7CTCfDwMKJxQ2Cz-51" target="74G0N7CTCfDwMKJxQ2Cz-50">
          <mxGeometry relative="1" as="geometry" />
        </mxCell>
        <mxCell id="74G0N7CTCfDwMKJxQ2Cz-51" value="Draw Legs&amp;nbsp;" style="rounded=0;whiteSpace=wrap;html=1;" vertex="1" parent="WIyWlLk6GJQsqaUBKTNV-1">
          <mxGeometry x="35" y="990" width="120" height="40" as="geometry" />
        </mxCell>
        <mxCell id="74G0N7CTCfDwMKJxQ2Cz-61" style="edgeStyle=none;rounded=0;orthogonalLoop=1;jettySize=auto;html=1;exitX=0.5;exitY=1;exitDx=0;exitDy=0;entryX=0.5;entryY=0;entryDx=0;entryDy=0;" edge="1" parent="WIyWlLk6GJQsqaUBKTNV-1" source="74G0N7CTCfDwMKJxQ2Cz-52" target="74G0N7CTCfDwMKJxQ2Cz-51">
          <mxGeometry relative="1" as="geometry" />
        </mxCell>
        <mxCell id="74G0N7CTCfDwMKJxQ2Cz-52" value="draw hands" style="rounded=0;whiteSpace=wrap;html=1;" vertex="1" parent="WIyWlLk6GJQsqaUBKTNV-1">
          <mxGeometry x="32.5" y="930" width="120" height="40" as="geometry" />
        </mxCell>
        <mxCell id="74G0N7CTCfDwMKJxQ2Cz-53" value="A3.5" style="text;html=1;strokeColor=none;fillColor=none;align=center;verticalAlign=middle;whiteSpace=wrap;rounded=0;" vertex="1" parent="WIyWlLk6GJQsqaUBKTNV-1">
          <mxGeometry x="30" y="990" width="40" height="20" as="geometry" />
        </mxCell>
        <mxCell id="74G0N7CTCfDwMKJxQ2Cz-54" value="A3.4" style="text;html=1;strokeColor=none;fillColor=none;align=center;verticalAlign=middle;whiteSpace=wrap;rounded=0;" vertex="1" parent="WIyWlLk6GJQsqaUBKTNV-1">
          <mxGeometry x="32.5" y="930" width="40" height="20" as="geometry" />
        </mxCell>
        <mxCell id="74G0N7CTCfDwMKJxQ2Cz-55" value="A3.3" style="text;html=1;strokeColor=none;fillColor=none;align=center;verticalAlign=middle;whiteSpace=wrap;rounded=0;" vertex="1" parent="WIyWlLk6GJQsqaUBKTNV-1">
          <mxGeometry x="30" y="850" width="40" height="30" as="geometry" />
        </mxCell>
        <mxCell id="74G0N7CTCfDwMKJxQ2Cz-56" value="A3.2" style="text;html=1;strokeColor=none;fillColor=none;align=center;verticalAlign=middle;whiteSpace=wrap;rounded=0;" vertex="1" parent="WIyWlLk6GJQsqaUBKTNV-1">
          <mxGeometry x="30" y="800" width="40" height="20" as="geometry" />
        </mxCell>
        <mxCell id="74G0N7CTCfDwMKJxQ2Cz-65" style="edgeStyle=none;rounded=0;orthogonalLoop=1;jettySize=auto;html=1;exitX=0.5;exitY=1;exitDx=0;exitDy=0;entryX=0.5;entryY=0;entryDx=0;entryDy=0;" edge="1" parent="WIyWlLk6GJQsqaUBKTNV-1" source="74G0N7CTCfDwMKJxQ2Cz-63" target="74G0N7CTCfDwMKJxQ2Cz-40">
          <mxGeometry relative="1" as="geometry" />
        </mxCell>
        <mxCell id="74G0N7CTCfDwMKJxQ2Cz-63" value="Draw neck" style="rounded=0;whiteSpace=wrap;html=1;" vertex="1" parent="WIyWlLk6GJQsqaUBKTNV-1">
          <mxGeometry x="25" y="750" width="130" height="30" as="geometry" />
        </mxCell>
        <mxCell id="74G0N7CTCfDwMKJxQ2Cz-66" value="A3.1" style="text;html=1;strokeColor=none;fillColor=none;align=center;verticalAlign=middle;whiteSpace=wrap;rounded=0;" vertex="1" parent="WIyWlLk6GJQsqaUBKTNV-1">
          <mxGeometry x="25" y="750" width="40" height="20" as="geometry" />
        </mxCell>
        <mxCell id="74G0N7CTCfDwMKJxQ2Cz-67" value="A3.6" style="text;html=1;strokeColor=none;fillColor=none;align=center;verticalAlign=middle;whiteSpace=wrap;rounded=0;" vertex="1" parent="WIyWlLk6GJQsqaUBKTNV-1">
          <mxGeometry x="33.75" y="1060" width="40" height="20" as="geometry" />
        </mxCell>
        <mxCell id="74G0N7CTCfDwMKJxQ2Cz-68" value="End" style="ellipse;whiteSpace=wrap;html=1;" vertex="1" parent="WIyWlLk6GJQsqaUBKTNV-1">
          <mxGeometry x="52.5" y="1120" width="80" height="40" as="geometry" />
        </mxCell>
        <mxCell id="74G0N7CTCfDwMKJxQ2Cz-77" style="edgeStyle=none;rounded=0;orthogonalLoop=1;jettySize=auto;html=1;exitX=0.5;exitY=1;exitDx=0;exitDy=0;entryX=0.5;entryY=0;entryDx=0;entryDy=0;" edge="1" parent="WIyWlLk6GJQsqaUBKTNV-1" source="74G0N7CTCfDwMKJxQ2Cz-70" target="74G0N7CTCfDwMKJxQ2Cz-74">
          <mxGeometry relative="1" as="geometry" />
        </mxCell>
        <mxCell id="74G0N7CTCfDwMKJxQ2Cz-70" value="StartA1.1" style="rounded=1;whiteSpace=wrap;html=1;" vertex="1" parent="WIyWlLk6GJQsqaUBKTNV-1">
          <mxGeometry x="540" y="40" width="80" height="30" as="geometry" />
        </mxCell>
        <mxCell id="74G0N7CTCfDwMKJxQ2Cz-114" style="edgeStyle=none;rounded=0;orthogonalLoop=1;jettySize=auto;html=1;exitX=0.5;exitY=1;exitDx=0;exitDy=0;entryX=0.5;entryY=0;entryDx=0;entryDy=0;" edge="1" parent="WIyWlLk6GJQsqaUBKTNV-1" source="74G0N7CTCfDwMKJxQ2Cz-71" target="74G0N7CTCfDwMKJxQ2Cz-113">
          <mxGeometry relative="1" as="geometry" />
        </mxCell>
        <mxCell id="74G0N7CTCfDwMKJxQ2Cz-71" value="Draw oval" style="rounded=0;whiteSpace=wrap;html=1;" vertex="1" parent="WIyWlLk6GJQsqaUBKTNV-1">
          <mxGeometry x="220" y="440" width="130" height="30" as="geometry" />
        </mxCell>
        <mxCell id="74G0N7CTCfDwMKJxQ2Cz-79" style="edgeStyle=none;rounded=0;orthogonalLoop=1;jettySize=auto;html=1;exitX=0.5;exitY=1;exitDx=0;exitDy=0;entryX=0.5;entryY=0;entryDx=0;entryDy=0;" edge="1" parent="WIyWlLk6GJQsqaUBKTNV-1" source="74G0N7CTCfDwMKJxQ2Cz-72" target="74G0N7CTCfDwMKJxQ2Cz-75">
          <mxGeometry relative="1" as="geometry" />
        </mxCell>
        <mxCell id="74G0N7CTCfDwMKJxQ2Cz-72" value="Draw circle" style="rounded=0;whiteSpace=wrap;html=1;" vertex="1" parent="WIyWlLk6GJQsqaUBKTNV-1">
          <mxGeometry x="505" y="230" width="155" height="30" as="geometry" />
        </mxCell>
        <mxCell id="74G0N7CTCfDwMKJxQ2Cz-78" style="edgeStyle=none;rounded=0;orthogonalLoop=1;jettySize=auto;html=1;exitX=0.5;exitY=1;exitDx=0;exitDy=0;entryX=0.5;entryY=0;entryDx=0;entryDy=0;" edge="1" parent="WIyWlLk6GJQsqaUBKTNV-1" source="74G0N7CTCfDwMKJxQ2Cz-73" target="74G0N7CTCfDwMKJxQ2Cz-72">
          <mxGeometry relative="1" as="geometry" />
        </mxCell>
        <mxCell id="74G0N7CTCfDwMKJxQ2Cz-73" value="Draw circle" style="rounded=0;whiteSpace=wrap;html=1;" vertex="1" parent="WIyWlLk6GJQsqaUBKTNV-1">
          <mxGeometry x="510" y="170" width="150" height="30" as="geometry" />
        </mxCell>
        <mxCell id="74G0N7CTCfDwMKJxQ2Cz-76" style="edgeStyle=none;rounded=0;orthogonalLoop=1;jettySize=auto;html=1;exitX=0.5;exitY=1;exitDx=0;exitDy=0;entryX=0.5;entryY=0;entryDx=0;entryDy=0;" edge="1" parent="WIyWlLk6GJQsqaUBKTNV-1" source="74G0N7CTCfDwMKJxQ2Cz-74" target="74G0N7CTCfDwMKJxQ2Cz-73">
          <mxGeometry relative="1" as="geometry" />
        </mxCell>
        <mxCell id="74G0N7CTCfDwMKJxQ2Cz-74" value="Draw ovals" style="rounded=0;whiteSpace=wrap;html=1;" vertex="1" parent="WIyWlLk6GJQsqaUBKTNV-1">
          <mxGeometry x="505" y="105" width="150" height="30" as="geometry" />
        </mxCell>
        <mxCell id="74G0N7CTCfDwMKJxQ2Cz-75" value="End" style="ellipse;whiteSpace=wrap;html=1;" vertex="1" parent="WIyWlLk6GJQsqaUBKTNV-1">
          <mxGeometry x="548.13" y="290" width="73.75" height="30" as="geometry" />
        </mxCell>
        <mxCell id="74G0N7CTCfDwMKJxQ2Cz-80" value="A1.1.1&lt;span style=&quot;color: rgba(0 , 0 , 0 , 0) ; font-family: monospace ; font-size: 0px&quot;&gt;%3CmxGraphModel%3E%3Croot%3E%3CmxCell%20id%3D%220%22%2F%3E%3CmxCell%20id%3D%221%22%20parent%3D%220%22%2F%3E%3CmxCell%20id%3D%222%22%20value%3D%22A1.1%22%20style%3D%22text%3Bhtml%3D1%3BstrokeColor%3Dnone%3BfillColor%3Dnone%3Balign%3Dcenter%3BverticalAlign%3Dmiddle%3BwhiteSpace%3Dwrap%3Brounded%3D0%3B%22%20vertex%3D%221%22%20parent%3D%221%22%3E%3CmxGeometry%20x%3D%22340%22%20y%3D%2290%22%20width%3D%2240%22%20height%3D%2220%22%20as%3D%22geometry%22%2F%3E%3C%2FmxCell%3E%3C%2Froot%3E%3C%2FmxGraphModel%3E&lt;/span&gt;" style="text;html=1;strokeColor=none;fillColor=none;align=center;verticalAlign=middle;whiteSpace=wrap;rounded=0;" vertex="1" parent="WIyWlLk6GJQsqaUBKTNV-1">
          <mxGeometry x="505" y="105" width="40" height="20" as="geometry" />
        </mxCell>
        <mxCell id="74G0N7CTCfDwMKJxQ2Cz-81" value="A1.1.2" style="text;html=1;strokeColor=none;fillColor=none;align=center;verticalAlign=middle;whiteSpace=wrap;rounded=0;" vertex="1" parent="WIyWlLk6GJQsqaUBKTNV-1">
          <mxGeometry x="510" y="170" width="40" height="20" as="geometry" />
        </mxCell>
        <mxCell id="74G0N7CTCfDwMKJxQ2Cz-82" value="A1.1.3" style="text;html=1;strokeColor=none;fillColor=none;align=center;verticalAlign=middle;whiteSpace=wrap;rounded=0;" vertex="1" parent="WIyWlLk6GJQsqaUBKTNV-1">
          <mxGeometry x="505" y="230" width="40" height="20" as="geometry" />
        </mxCell>
        <mxCell id="74G0N7CTCfDwMKJxQ2Cz-93" style="edgeStyle=none;rounded=0;orthogonalLoop=1;jettySize=auto;html=1;exitX=0.5;exitY=1;exitDx=0;exitDy=0;entryX=0.5;entryY=0;entryDx=0;entryDy=0;" edge="1" parent="WIyWlLk6GJQsqaUBKTNV-1" source="74G0N7CTCfDwMKJxQ2Cz-83" target="74G0N7CTCfDwMKJxQ2Cz-85">
          <mxGeometry relative="1" as="geometry" />
        </mxCell>
        <mxCell id="74G0N7CTCfDwMKJxQ2Cz-83" value="Start A1.2" style="rounded=1;whiteSpace=wrap;html=1;" vertex="1" parent="WIyWlLk6GJQsqaUBKTNV-1">
          <mxGeometry x="735" y="37.5" width="90" height="35" as="geometry" />
        </mxCell>
        <mxCell id="74G0N7CTCfDwMKJxQ2Cz-145" style="edgeStyle=none;rounded=0;orthogonalLoop=1;jettySize=auto;html=1;exitX=0.5;exitY=1;exitDx=0;exitDy=0;entryX=0.5;entryY=0;entryDx=0;entryDy=0;" edge="1" parent="WIyWlLk6GJQsqaUBKTNV-1" source="74G0N7CTCfDwMKJxQ2Cz-84" target="74G0N7CTCfDwMKJxQ2Cz-141">
          <mxGeometry relative="1" as="geometry">
            <mxPoint x="660.1428571428573" y="490" as="targetPoint" />
          </mxGeometry>
        </mxCell>
        <mxCell id="74G0N7CTCfDwMKJxQ2Cz-84" value="Draw circle" style="rounded=0;whiteSpace=wrap;html=1;" vertex="1" parent="WIyWlLk6GJQsqaUBKTNV-1">
          <mxGeometry x="600" y="427.5" width="160" height="35" as="geometry" />
        </mxCell>
        <mxCell id="74G0N7CTCfDwMKJxQ2Cz-92" style="edgeStyle=none;rounded=0;orthogonalLoop=1;jettySize=auto;html=1;exitX=0.5;exitY=1;exitDx=0;exitDy=0;entryX=0.5;entryY=0;entryDx=0;entryDy=0;" edge="1" parent="WIyWlLk6GJQsqaUBKTNV-1" source="74G0N7CTCfDwMKJxQ2Cz-85" target="74G0N7CTCfDwMKJxQ2Cz-90">
          <mxGeometry relative="1" as="geometry">
            <mxPoint x="780.1428571428573" y="160" as="targetPoint" />
          </mxGeometry>
        </mxCell>
        <mxCell id="74G0N7CTCfDwMKJxQ2Cz-85" value="Draw oval" style="rounded=0;whiteSpace=wrap;html=1;" vertex="1" parent="WIyWlLk6GJQsqaUBKTNV-1">
          <mxGeometry x="700" y="100" width="160" height="30" as="geometry" />
        </mxCell>
        <mxCell id="74G0N7CTCfDwMKJxQ2Cz-103" style="edgeStyle=none;rounded=0;orthogonalLoop=1;jettySize=auto;html=1;exitX=0.5;exitY=1;exitDx=0;exitDy=0;entryX=0.5;entryY=0;entryDx=0;entryDy=0;" edge="1" parent="WIyWlLk6GJQsqaUBKTNV-1" source="74G0N7CTCfDwMKJxQ2Cz-86" target="74G0N7CTCfDwMKJxQ2Cz-101">
          <mxGeometry relative="1" as="geometry" />
        </mxCell>
        <mxCell id="74G0N7CTCfDwMKJxQ2Cz-86" value="Draw oval" style="rounded=0;whiteSpace=wrap;html=1;" vertex="1" parent="WIyWlLk6GJQsqaUBKTNV-1">
          <mxGeometry x="890" y="155" width="160" height="35" as="geometry" />
        </mxCell>
        <mxCell id="74G0N7CTCfDwMKJxQ2Cz-140" style="edgeStyle=none;rounded=0;orthogonalLoop=1;jettySize=auto;html=1;exitX=0.5;exitY=1;exitDx=0;exitDy=0;" edge="1" parent="WIyWlLk6GJQsqaUBKTNV-1" source="74G0N7CTCfDwMKJxQ2Cz-87" target="74G0N7CTCfDwMKJxQ2Cz-139">
          <mxGeometry relative="1" as="geometry" />
        </mxCell>
        <mxCell id="74G0N7CTCfDwMKJxQ2Cz-87" value="Draw centre oval" style="rounded=0;whiteSpace=wrap;html=1;" vertex="1" parent="WIyWlLk6GJQsqaUBKTNV-1">
          <mxGeometry x="395" y="430" width="185" height="30" as="geometry" />
        </mxCell>
        <mxCell id="74G0N7CTCfDwMKJxQ2Cz-99" style="edgeStyle=none;rounded=0;orthogonalLoop=1;jettySize=auto;html=1;exitX=0.5;exitY=1;exitDx=0;exitDy=0;entryX=0.5;entryY=0;entryDx=0;entryDy=0;" edge="1" parent="WIyWlLk6GJQsqaUBKTNV-1" source="74G0N7CTCfDwMKJxQ2Cz-88" target="74G0N7CTCfDwMKJxQ2Cz-86">
          <mxGeometry relative="1" as="geometry" />
        </mxCell>
        <mxCell id="74G0N7CTCfDwMKJxQ2Cz-88" value="Draw oval" style="rounded=0;whiteSpace=wrap;html=1;" vertex="1" parent="WIyWlLk6GJQsqaUBKTNV-1">
          <mxGeometry x="890" y="100" width="160" height="30" as="geometry" />
        </mxCell>
        <mxCell id="74G0N7CTCfDwMKJxQ2Cz-89" value="A1.2.1" style="text;html=1;strokeColor=none;fillColor=none;align=center;verticalAlign=middle;whiteSpace=wrap;rounded=0;" vertex="1" parent="WIyWlLk6GJQsqaUBKTNV-1">
          <mxGeometry x="702.5" y="100" width="32.5" height="20" as="geometry" />
        </mxCell>
        <mxCell id="74G0N7CTCfDwMKJxQ2Cz-94" style="edgeStyle=none;rounded=0;orthogonalLoop=1;jettySize=auto;html=1;exitX=0.5;exitY=0;exitDx=0;exitDy=0;" edge="1" parent="WIyWlLk6GJQsqaUBKTNV-1" source="74G0N7CTCfDwMKJxQ2Cz-90">
          <mxGeometry relative="1" as="geometry">
            <mxPoint x="780.1428571428573" y="164.57142857142867" as="targetPoint" />
          </mxGeometry>
        </mxCell>
        <mxCell id="74G0N7CTCfDwMKJxQ2Cz-90" value="End" style="ellipse;whiteSpace=wrap;html=1;" vertex="1" parent="WIyWlLk6GJQsqaUBKTNV-1">
          <mxGeometry x="743.12" y="165" width="73.75" height="30" as="geometry" />
        </mxCell>
        <mxCell id="74G0N7CTCfDwMKJxQ2Cz-100" style="edgeStyle=none;rounded=0;orthogonalLoop=1;jettySize=auto;html=1;exitX=0.5;exitY=1;exitDx=0;exitDy=0;entryX=0.5;entryY=0;entryDx=0;entryDy=0;" edge="1" parent="WIyWlLk6GJQsqaUBKTNV-1" source="74G0N7CTCfDwMKJxQ2Cz-95" target="74G0N7CTCfDwMKJxQ2Cz-88">
          <mxGeometry relative="1" as="geometry" />
        </mxCell>
        <mxCell id="74G0N7CTCfDwMKJxQ2Cz-95" value="Start A1.3" style="rounded=1;whiteSpace=wrap;html=1;" vertex="1" parent="WIyWlLk6GJQsqaUBKTNV-1">
          <mxGeometry x="920" y="40" width="90" height="35" as="geometry" />
        </mxCell>
        <mxCell id="74G0N7CTCfDwMKJxQ2Cz-97" value="A1.3.1" style="text;html=1;strokeColor=none;fillColor=none;align=center;verticalAlign=middle;whiteSpace=wrap;rounded=0;" vertex="1" parent="WIyWlLk6GJQsqaUBKTNV-1">
          <mxGeometry x="900" y="100" width="30" height="20" as="geometry" />
        </mxCell>
        <mxCell id="74G0N7CTCfDwMKJxQ2Cz-98" value="A1.3.2" style="text;html=1;strokeColor=none;fillColor=none;align=center;verticalAlign=middle;whiteSpace=wrap;rounded=0;" vertex="1" parent="WIyWlLk6GJQsqaUBKTNV-1">
          <mxGeometry x="900" y="155" width="30" height="20" as="geometry" />
        </mxCell>
        <mxCell id="74G0N7CTCfDwMKJxQ2Cz-101" value="End" style="ellipse;whiteSpace=wrap;html=1;" vertex="1" parent="WIyWlLk6GJQsqaUBKTNV-1">
          <mxGeometry x="936.25" y="220" width="73.75" height="30" as="geometry" />
        </mxCell>
        <mxCell id="74G0N7CTCfDwMKJxQ2Cz-107" style="edgeStyle=none;rounded=0;orthogonalLoop=1;jettySize=auto;html=1;exitX=0.5;exitY=1;exitDx=0;exitDy=0;entryX=0.5;entryY=0;entryDx=0;entryDy=0;" edge="1" parent="WIyWlLk6GJQsqaUBKTNV-1" source="74G0N7CTCfDwMKJxQ2Cz-104" target="74G0N7CTCfDwMKJxQ2Cz-106">
          <mxGeometry relative="1" as="geometry" />
        </mxCell>
        <mxCell id="74G0N7CTCfDwMKJxQ2Cz-104" value="Start A1.4" style="rounded=1;whiteSpace=wrap;html=1;" vertex="1" parent="WIyWlLk6GJQsqaUBKTNV-1">
          <mxGeometry x="1120" y="37.5" width="90" height="35" as="geometry" />
        </mxCell>
        <mxCell id="74G0N7CTCfDwMKJxQ2Cz-110" style="edgeStyle=none;rounded=0;orthogonalLoop=1;jettySize=auto;html=1;exitX=0.5;exitY=1;exitDx=0;exitDy=0;entryX=0.5;entryY=0;entryDx=0;entryDy=0;" edge="1" parent="WIyWlLk6GJQsqaUBKTNV-1" source="74G0N7CTCfDwMKJxQ2Cz-106" target="74G0N7CTCfDwMKJxQ2Cz-109">
          <mxGeometry relative="1" as="geometry" />
        </mxCell>
        <mxCell id="74G0N7CTCfDwMKJxQ2Cz-106" value="Draw oval" style="rounded=0;whiteSpace=wrap;html=1;" vertex="1" parent="WIyWlLk6GJQsqaUBKTNV-1">
          <mxGeometry x="1085" y="95" width="160" height="30" as="geometry" />
        </mxCell>
        <mxCell id="74G0N7CTCfDwMKJxQ2Cz-108" value="&lt;br&gt;&lt;br&gt;&lt;span style=&quot;color: rgb(0 , 0 , 0) ; font-family: &amp;#34;helvetica&amp;#34; ; font-size: 12px ; font-style: normal ; font-weight: 400 ; letter-spacing: normal ; text-align: center ; text-indent: 0px ; text-transform: none ; word-spacing: 0px ; background-color: rgb(248 , 249 , 250) ; display: inline ; float: none&quot;&gt;A1.4.1&lt;/span&gt;" style="text;html=1;strokeColor=none;fillColor=none;align=center;verticalAlign=middle;whiteSpace=wrap;rounded=0;" vertex="1" parent="WIyWlLk6GJQsqaUBKTNV-1">
          <mxGeometry x="1070" y="80" width="80" height="20" as="geometry" />
        </mxCell>
        <mxCell id="74G0N7CTCfDwMKJxQ2Cz-109" value="End" style="ellipse;whiteSpace=wrap;html=1;" vertex="1" parent="WIyWlLk6GJQsqaUBKTNV-1">
          <mxGeometry x="1128.13" y="145" width="73.75" height="30" as="geometry" />
        </mxCell>
        <mxCell id="74G0N7CTCfDwMKJxQ2Cz-115" style="edgeStyle=none;rounded=0;orthogonalLoop=1;jettySize=auto;html=1;exitX=0.5;exitY=1;exitDx=0;exitDy=0;entryX=0.5;entryY=0;entryDx=0;entryDy=0;" edge="1" parent="WIyWlLk6GJQsqaUBKTNV-1" source="74G0N7CTCfDwMKJxQ2Cz-112" target="74G0N7CTCfDwMKJxQ2Cz-71">
          <mxGeometry relative="1" as="geometry" />
        </mxCell>
        <mxCell id="74G0N7CTCfDwMKJxQ2Cz-112" value="Start A2.1" style="rounded=1;whiteSpace=wrap;html=1;" vertex="1" parent="WIyWlLk6GJQsqaUBKTNV-1">
          <mxGeometry x="250" y="390" width="70" height="30" as="geometry" />
        </mxCell>
        <mxCell id="74G0N7CTCfDwMKJxQ2Cz-121" style="edgeStyle=none;rounded=0;orthogonalLoop=1;jettySize=auto;html=1;exitX=0.5;exitY=1;exitDx=0;exitDy=0;entryX=0.5;entryY=0;entryDx=0;entryDy=0;" edge="1" parent="WIyWlLk6GJQsqaUBKTNV-1" source="74G0N7CTCfDwMKJxQ2Cz-113" target="74G0N7CTCfDwMKJxQ2Cz-117">
          <mxGeometry relative="1" as="geometry" />
        </mxCell>
        <mxCell id="74G0N7CTCfDwMKJxQ2Cz-113" value="Draw circles" style="rounded=0;whiteSpace=wrap;html=1;" vertex="1" parent="WIyWlLk6GJQsqaUBKTNV-1">
          <mxGeometry x="207.5" y="495" width="155" height="30" as="geometry" />
        </mxCell>
        <mxCell id="74G0N7CTCfDwMKJxQ2Cz-117" value="End" style="ellipse;whiteSpace=wrap;html=1;" vertex="1" parent="WIyWlLk6GJQsqaUBKTNV-1">
          <mxGeometry x="246.25" y="544" width="77.5" height="40" as="geometry" />
        </mxCell>
        <mxCell id="74G0N7CTCfDwMKJxQ2Cz-119" value="A2.1.1" style="text;html=1;strokeColor=none;fillColor=none;align=center;verticalAlign=middle;whiteSpace=wrap;rounded=0;" vertex="1" parent="WIyWlLk6GJQsqaUBKTNV-1">
          <mxGeometry x="220" y="435" width="40" height="20" as="geometry" />
        </mxCell>
        <mxCell id="74G0N7CTCfDwMKJxQ2Cz-120" value="A2.1.2" style="text;html=1;strokeColor=none;fillColor=none;align=center;verticalAlign=middle;whiteSpace=wrap;rounded=0;" vertex="1" parent="WIyWlLk6GJQsqaUBKTNV-1">
          <mxGeometry x="207.5" y="495" width="40" height="20" as="geometry" />
        </mxCell>
        <mxCell id="74G0N7CTCfDwMKJxQ2Cz-126" style="edgeStyle=none;rounded=0;orthogonalLoop=1;jettySize=auto;html=1;exitX=0.5;exitY=1;exitDx=0;exitDy=0;entryX=0.5;entryY=0;entryDx=0;entryDy=0;" edge="1" parent="WIyWlLk6GJQsqaUBKTNV-1" source="74G0N7CTCfDwMKJxQ2Cz-122" target="74G0N7CTCfDwMKJxQ2Cz-87">
          <mxGeometry relative="1" as="geometry" />
        </mxCell>
        <mxCell id="74G0N7CTCfDwMKJxQ2Cz-122" value="Start A2.1.1" style="rounded=1;whiteSpace=wrap;html=1;" vertex="1" parent="WIyWlLk6GJQsqaUBKTNV-1">
          <mxGeometry x="453.75" y="380" width="70" height="30" as="geometry" />
        </mxCell>
        <mxCell id="74G0N7CTCfDwMKJxQ2Cz-148" style="edgeStyle=none;rounded=0;orthogonalLoop=1;jettySize=auto;html=1;exitX=0.5;exitY=1;exitDx=0;exitDy=0;" edge="1" parent="WIyWlLk6GJQsqaUBKTNV-1" source="74G0N7CTCfDwMKJxQ2Cz-129" target="74G0N7CTCfDwMKJxQ2Cz-84">
          <mxGeometry relative="1" as="geometry" />
        </mxCell>
        <mxCell id="74G0N7CTCfDwMKJxQ2Cz-129" value="Start A2.1.2" style="rounded=1;whiteSpace=wrap;html=1;" vertex="1" parent="WIyWlLk6GJQsqaUBKTNV-1">
          <mxGeometry x="645" y="380" width="70" height="30" as="geometry" />
        </mxCell>
        <mxCell id="74G0N7CTCfDwMKJxQ2Cz-131" value="A2.1.1.1&lt;span style=&quot;color: rgba(0 , 0 , 0 , 0) ; font-family: monospace ; font-size: 0px&quot;&gt;%3CmxGraphModel%3E%3Croot%3E%3CmxCell%20id%3D%220%22%2F%3E%3CmxCell%20id%3D%221%22%20parent%3D%220%22%2F%3E%3CmxCell%20id%3D%222%22%20value%3D%22A2.1.1%22%20style%3D%22text%3Bhtml%3D1%3BstrokeColor%3Dnone%3BfillColor%3Dnone%3Balign%3Dcenter%3BverticalAlign%3Dmiddle%3BwhiteSpace%3Dwrap%3Brounded%3D0%3B%22%20vertex%3D%221%22%20parent%3D%221%22%3E%3CmxGeometry%20x%3D%22220%22%20y%3D%22440%22%20width%3D%2240%22%20height%3D%2220%22%20as%3D%22geometry%22%2F%3E%3C%2FmxCell%3E%3C%2Froot%3E%3C%2FmxGraphModel%3E&lt;/span&gt;&lt;span style=&quot;color: rgba(0 , 0 , 0 , 0) ; font-family: monospace ; font-size: 0px&quot;&gt;%3CmxGraphModel%3E%3Croot%3E%3CmxCell%20id%3D%220%22%2F%3E%3CmxCell%20id%3D%221%22%20parent%3D%220%22%2F%3E%3CmxCell%20id%3D%222%22%20value%3D%22A2.1.1%22%20style%3D%22text%3Bhtml%3D1%3BstrokeColor%3Dnone%3BfillColor%3Dnone%3Balign%3Dcenter%3BverticalAlign%3Dmiddle%3BwhiteSpace%3Dwrap%3Brounded%3D0%3B%22%20vertex%3D%221%22%20parent%3D%221%22%3E%3CmxGeometry%20x%3D%22220%22%20y%3D%22440%22%20width%3D%2240%22%20height%3D%2220%22%20as%3D%22geometry%22%2F%3E%3C%2FmxCell%3E%3C%2Froot%3E%3C%2FmxGraphModel%3E&lt;/span&gt;&lt;span style=&quot;color: rgba(0 , 0 , 0 , 0) ; font-family: monospace ; font-size: 0px&quot;&gt;%3CmxGraphModel%3E%3Croot%3E%3CmxCell%20id%3D%220%22%2F%3E%3CmxCell%20id%3D%221%22%20parent%3D%220%22%2F%3E%3CmxCell%20id%3D%222%22%20value%3D%22A2.1.1%22%20style%3D%22text%3Bhtml%3D1%3BstrokeColor%3Dnone%3BfillColor%3Dnone%3Balign%3Dcenter%3BverticalAlign%3Dmiddle%3BwhiteSpace%3Dwrap%3Brounded%3D0%3B%22%20vertex%3D%221%22%20parent%3D%221%22%3E%3CmxGeometry%20x%3D%22220%22%20y%3D%22440%22%20width%3D%2240%22%20height%3D%2220%22%20as%3D%22geometry%22%2F%3E%3C%2FmxCell%3E%3C%2Froot%3E%3C%2FmxGraphModel%3E&lt;/span&gt;" style="text;html=1;strokeColor=none;fillColor=none;align=center;verticalAlign=middle;whiteSpace=wrap;rounded=0;" vertex="1" parent="WIyWlLk6GJQsqaUBKTNV-1">
          <mxGeometry x="400" y="430" width="40" height="20" as="geometry" />
        </mxCell>
        <mxCell id="74G0N7CTCfDwMKJxQ2Cz-139" value="End" style="ellipse;whiteSpace=wrap;html=1;" vertex="1" parent="WIyWlLk6GJQsqaUBKTNV-1">
          <mxGeometry x="446.25" y="480" width="77.5" height="40" as="geometry" />
        </mxCell>
        <mxCell id="74G0N7CTCfDwMKJxQ2Cz-146" style="edgeStyle=none;rounded=0;orthogonalLoop=1;jettySize=auto;html=1;exitX=0.5;exitY=1;exitDx=0;exitDy=0;entryX=0.5;entryY=0;entryDx=0;entryDy=0;" edge="1" parent="WIyWlLk6GJQsqaUBKTNV-1" source="74G0N7CTCfDwMKJxQ2Cz-141" target="74G0N7CTCfDwMKJxQ2Cz-143">
          <mxGeometry relative="1" as="geometry" />
        </mxCell>
        <mxCell id="74G0N7CTCfDwMKJxQ2Cz-141" value="Draw circle" style="rounded=0;whiteSpace=wrap;html=1;" vertex="1" parent="WIyWlLk6GJQsqaUBKTNV-1">
          <mxGeometry x="600" y="495" width="160" height="35" as="geometry" />
        </mxCell>
        <mxCell id="74G0N7CTCfDwMKJxQ2Cz-147" style="edgeStyle=none;rounded=0;orthogonalLoop=1;jettySize=auto;html=1;exitX=0.5;exitY=1;exitDx=0;exitDy=0;entryX=0.5;entryY=0;entryDx=0;entryDy=0;" edge="1" parent="WIyWlLk6GJQsqaUBKTNV-1" source="74G0N7CTCfDwMKJxQ2Cz-143" target="74G0N7CTCfDwMKJxQ2Cz-144">
          <mxGeometry relative="1" as="geometry" />
        </mxCell>
        <mxCell id="74G0N7CTCfDwMKJxQ2Cz-143" value="Draw circle" style="rounded=0;whiteSpace=wrap;html=1;" vertex="1" parent="WIyWlLk6GJQsqaUBKTNV-1">
          <mxGeometry x="600" y="560" width="160" height="35" as="geometry" />
        </mxCell>
        <mxCell id="74G0N7CTCfDwMKJxQ2Cz-150" style="edgeStyle=none;rounded=0;orthogonalLoop=1;jettySize=auto;html=1;exitX=0.5;exitY=1;exitDx=0;exitDy=0;entryX=0.5;entryY=0;entryDx=0;entryDy=0;" edge="1" parent="WIyWlLk6GJQsqaUBKTNV-1" source="74G0N7CTCfDwMKJxQ2Cz-144" target="74G0N7CTCfDwMKJxQ2Cz-149">
          <mxGeometry relative="1" as="geometry" />
        </mxCell>
        <mxCell id="74G0N7CTCfDwMKJxQ2Cz-144" value="Draw circle" style="rounded=0;whiteSpace=wrap;html=1;" vertex="1" parent="WIyWlLk6GJQsqaUBKTNV-1">
          <mxGeometry x="600" y="620" width="160" height="35" as="geometry" />
        </mxCell>
        <mxCell id="74G0N7CTCfDwMKJxQ2Cz-149" value="End" style="ellipse;whiteSpace=wrap;html=1;" vertex="1" parent="WIyWlLk6GJQsqaUBKTNV-1">
          <mxGeometry x="641.25" y="670" width="77.5" height="40" as="geometry" />
        </mxCell>
        <mxCell id="74G0N7CTCfDwMKJxQ2Cz-151" value="&lt;span style=&quot;color: rgb(0 , 0 , 0) ; font-family: &amp;#34;helvetica&amp;#34; ; font-size: 12px ; font-style: normal ; font-weight: 400 ; letter-spacing: normal ; text-align: center ; text-indent: 0px ; text-transform: none ; word-spacing: 0px ; background-color: rgb(248 , 249 , 250) ; display: inline ; float: none&quot;&gt;A2.1.2.1&lt;/span&gt;&lt;span style=&quot;font-style: normal ; font-weight: 400 ; letter-spacing: normal ; text-align: center ; text-indent: 0px ; text-transform: none ; word-spacing: 0px ; background-color: rgb(248 , 249 , 250) ; color: rgba(0 , 0 , 0 , 0) ; font-family: monospace ; font-size: 0px&quot;&gt;%3CmxGraphModel%3E%3Croot%3E%3CmxCell%20id%3D%220%22%2F%3E%3CmxCell%20id%3D%221%22%20parent%3D%220%22%2F%3E%3CmxCell%20id%3D%222%22%20value%3D%22A2.1.1%22%20style%3D%22text%3Bhtml%3D1%3BstrokeColor%3Dnone%3BfillColor%3Dnone%3Balign%3Dcenter%3BverticalAlign%3Dmiddle%3BwhiteSpace%3Dwrap%3Brounded%3D0%3B%22%20vertex%3D%221%22%20parent%3D%221%22%3E%3CmxGeometry%20x%3D%22220%22%20y%3D%22440%22%20width%3D%2240%22%20height%3D%2220%22%20as%3D%22geometry%22%2F%3E%3C%2FmxCell%3E%3C%2Froot%3E%3C%2FmxGraphModel%3E&lt;/span&gt;&lt;span style=&quot;font-style: normal ; font-weight: 400 ; letter-spacing: normal ; text-align: center ; text-indent: 0px ; text-transform: none ; word-spacing: 0px ; background-color: rgb(248 , 249 , 250) ; color: rgba(0 , 0 , 0 , 0) ; font-family: monospace ; font-size: 0px&quot;&gt;%3CmxGraphModel%3E%3Croot%3E%3CmxCell%20id%3D%220%22%2F%3E%3CmxCell%20id%3D%221%22%20parent%3D%220%22%2F%3E%3CmxCell%20id%3D%222%22%20value%3D%22A2.1.1%22%20style%3D%22text%3Bhtml%3D1%3BstrokeColor%3Dnone%3BfillColor%3Dnone%3Balign%3Dcenter%3BverticalAlign%3Dmiddle%3BwhiteSpace%3Dwrap%3Brounded%3D0%3B%22%20vertex%3D%221%22%20parent%3D%221%22%3E%3CmxGeometry%20x%3D%22220%22%20y%3D%22440%22%20width%3D%2240%22%20height%3D%2220%22%20as%3D%22geometry%22%2F%3E%3C%2FmxCell%3E%3C%2Froot%3E%3C%2FmxGraphModel%3E&lt;/span&gt;&lt;span style=&quot;font-style: normal ; font-weight: 400 ; letter-spacing: normal ; text-align: center ; text-indent: 0px ; text-transform: none ; word-spacing: 0px ; background-color: rgb(248 , 249 , 250) ; color: rgba(0 , 0 , 0 , 0) ; font-family: monospace ; font-size: 0px&quot;&gt;%3CmxGraphModel%3E%3Croot%3E%3CmxCell%20id%3D%220%22%2F%3E%3CmxCell%20id%3D%221%22%20parent%3D%220%22%2F%3E%3CmxCell%20id%3D%222%22%20value%3D%22A2.1.1%22%20style%3D%22text%3Bhtml%3D1%3BstrokeColor%3Dnone%3BfillColor%3Dnone%3Balign%3Dcenter%3BverticalAlign%3Dmiddle%3BwhiteSpace%3Dwrap%3Brounded%3D0%3B%22%20vertex%3D%221%22%20parent%3D%221%22%3E%3CmxGeometry%20x%3D%22220%22%20y%3D%22440%22%20width%3D%2240%22%20height%3D%2220%22%20as%3D%22geometry%22%2F%3E%3C%2FmxCell%3E%3C%2Froot%3E%3C%2FmxGraphModel%3E&lt;/span&gt;" style="text;whiteSpace=wrap;html=1;" vertex="1" parent="WIyWlLk6GJQsqaUBKTNV-1">
          <mxGeometry x="600" y="425" width="70" height="30" as="geometry" />
        </mxCell>
        <mxCell id="74G0N7CTCfDwMKJxQ2Cz-152" value="&lt;span style=&quot;color: rgb(0 , 0 , 0) ; font-family: &amp;#34;helvetica&amp;#34; ; font-size: 12px ; font-style: normal ; font-weight: 400 ; letter-spacing: normal ; text-align: center ; text-indent: 0px ; text-transform: none ; word-spacing: 0px ; background-color: rgb(248 , 249 , 250) ; display: inline ; float: none&quot;&gt;A2.1.2.2&lt;span style=&quot;color: rgba(0 , 0 , 0 , 0) ; font-family: monospace ; font-size: 0px&quot;&gt;%3CmxGraphModel%3E%3Croot%3E%3CmxCell%20id%3D%220%22%2F%3E%3CmxCell%20id%3D%221%22%20parent%3D%220%22%2F%3E%3CmxCell%20id%3D%222%22%20value%3D%22%26lt%3Bspan%20style%3D%26quot%3Bcolor%3A%20rgb(0%20%2C%200%20%2C%200)%20%3B%20font-family%3A%20%26amp%3B%2334%3Bhelvetica%26amp%3B%2334%3B%20%3B%20font-size%3A%2012px%20%3B%20font-style%3A%20normal%20%3B%20font-weight%3A%20400%20%3B%20letter-spacing%3A%20normal%20%3B%20text-align%3A%20center%20%3B%20text-indent%3A%200px%20%3B%20text-transform%3A%20none%20%3B%20word-spacing%3A%200px%20%3B%20background-color%3A%20rgb(248%20%2C%20249%20%2C%20250)%20%3B%20display%3A%20inline%20%3B%20float%3A%20none%26quot%3B%26gt%3BA2.1.2.1%26lt%3B%2Fspan%26gt%3B%26lt%3Bspan%20style%3D%26quot%3Bfont-style%3A%20normal%20%3B%20font-weight%3A%20400%20%3B%20letter-spacing%3A%20normal%20%3B%20text-align%3A%20center%20%3B%20text-indent%3A%200px%20%3B%20text-transform%3A%20none%20%3B%20word-spacing%3A%200px%20%3B%20background-color%3A%20rgb(248%20%2C%20249%20%2C%20250)%20%3B%20color%3A%20rgba(0%20%2C%200%20%2C%200%20%2C%200)%20%3B%20font-family%3A%20monospace%20%3B%20font-size%3A%200px%26quot%3B%26gt%3B%253CmxGraphModel%253E%253Croot%253E%253CmxCell%2520id%253D%25220%2522%252F%253E%253CmxCell%2520id%253D%25221%2522%2520parent%253D%25220%2522%252F%253E%253CmxCell%2520id%253D%25222%2522%2520value%253D%2522A2.1.1%2522%2520style%253D%2522text%253Bhtml%253D1%253BstrokeColor%253Dnone%253BfillColor%253Dnone%253Balign%253Dcenter%253BverticalAlign%253Dmiddle%253BwhiteSpace%253Dwrap%253Brounded%253D0%253B%2522%2520vertex%253D%25221%2522%2520parent%253D%25221%2522%253E%253CmxGeometry%2520x%253D%2522220%2522%2520y%253D%2522440%2522%2520width%253D%252240%2522%2520height%253D%252220%2522%2520as%253D%2522geometry%2522%252F%253E%253C%252FmxCell%253E%253C%252Froot%253E%253C%252FmxGraphModel%253E%26lt%3B%2Fspan%26gt%3B%26lt%3Bspan%20style%3D%26quot%3Bfont-style%3A%20normal%20%3B%20font-weight%3A%20400%20%3B%20letter-spacing%3A%20normal%20%3B%20text-align%3A%20center%20%3B%20text-indent%3A%200px%20%3B%20text-transform%3A%20none%20%3B%20word-spacing%3A%200px%20%3B%20background-color%3A%20rgb(248%20%2C%20249%20%2C%20250)%20%3B%20color%3A%20rgba(0%20%2C%200%20%2C%200%20%2C%200)%20%3B%20font-family%3A%20monospace%20%3B%20font-size%3A%200px%26quot%3B%26gt%3B%253CmxGraphModel%253E%253Croot%253E%253CmxCell%2520id%253D%25220%2522%252F%253E%253CmxCell%2520id%253D%25221%2522%2520parent%253D%25220%2522%252F%253E%253CmxCell%2520id%253D%25222%2522%2520value%253D%2522A2.1.1%2522%2520style%253D%2522text%253Bhtml%253D1%253BstrokeColor%253Dnone%253BfillColor%253Dnone%253Balign%253Dcenter%253BverticalAlign%253Dmiddle%253BwhiteSpace%253Dwrap%253Brounded%253D0%253B%2522%2520vertex%253D%25221%2522%2520parent%253D%25221%2522%253E%253CmxGeometry%2520x%253D%2522220%2522%2520y%253D%2522440%2522%2520width%253D%252240%2522%2520height%253D%252220%2522%2520as%253D%2522geometry%2522%252F%253E%253C%252FmxCell%253E%253C%252Froot%253E%253C%252FmxGraphModel%253E%26lt%3B%2Fspan%26gt%3B%26lt%3Bspan%20style%3D%26quot%3Bfont-style%3A%20normal%20%3B%20font-weight%3A%20400%20%3B%20letter-spacing%3A%20normal%20%3B%20text-align%3A%20center%20%3B%20text-indent%3A%200px%20%3B%20text-transform%3A%20none%20%3B%20word-spacing%3A%200px%20%3B%20background-color%3A%20rgb(248%20%2C%20249%20%2C%20250)%20%3B%20color%3A%20rgba(0%20%2C%200%20%2C%200%20%2C%200)%20%3B%20font-family%3A%20monospace%20%3B%20font-size%3A%200px%26quot%3B%26gt%3B%253CmxGraphModel%253E%253Croot%253E%253CmxCell%2520id%253D%25220%2522%252F%253E%253CmxCell%2520id%253D%25221%2522%2520parent%253D%25220%2522%252F%253E%253CmxCell%2520id%253D%25222%2522%2520value%253D%2522A2.1.1%2522%2520style%253D%2522text%253Bhtml%253D1%253BstrokeColor%253Dnone%253BfillColor%253Dnone%253Balign%253Dcenter%253BverticalAlign%253Dmiddle%253BwhiteSpace%253Dwrap%253Brounded%253D0%253B%2522%2520vertex%253D%25221%2522%2520parent%253D%25221%2522%253E%253CmxGeometry%2520x%253D%2522220%2522%2520y%253D%2522440%2522%2520width%253D%252240%2522%2520height%253D%252220%2522%2520as%253D%2522geometry%2522%252F%253E%253C%252FmxCell%253E%253C%252Froot%253E%253C%252FmxGraphModel%253E%26lt%3B%2Fspan%26gt%3B%22%20style%3D%22text%3BwhiteSpace%3Dwrap%3Bhtml%3D1%3B%22%20vertex%3D%221%22%20parent%3D%221%22%3E%3CmxGeometry%20x%3D%22600%22%20y%3D%22425%22%20width%3D%2270%22%20height%3D%2230%22%20as%3D%22geometry%22%2F%3E%3C%2FmxCell%3E%3C%2Froot%3E%3C%2FmxGraphModel%3E&lt;/span&gt;&lt;br&gt;&lt;/span&gt;&lt;span style=&quot;font-style: normal ; font-weight: 400 ; letter-spacing: normal ; text-align: center ; text-indent: 0px ; text-transform: none ; word-spacing: 0px ; background-color: rgb(248 , 249 , 250) ; color: rgba(0 , 0 , 0 , 0) ; font-family: monospace ; font-size: 0px&quot;&gt;%3CmxGraphModel%3E%3Croot%3E%3CmxCell%20id%3D%220%22%2F%3E%3CmxCell%20id%3D%221%22%20parent%3D%220%22%2F%3E%3CmxCell%20id%3D%222%22%20value%3D%22A2.1.1%22%20style%3D%22text%3Bhtml%3D1%3BstrokeColor%3Dnone%3BfillColor%3Dnone%3Balign%3Dcenter%3BverticalAlign%3Dmiddle%3BwhiteSpace%3Dwrap%3Brounded%3D0%3B%22%20vertex%3D%221%22%20parent%3D%221%22%3E%3CmxGeometry%20x%3D%22220%22%20y%3D%22440%22%20width%3D%2240%22%20height%3D%2220%22%20as%3D%22geometry%22%2F%3E%3C%2FmxCell%3E%3C%2Froot%3E%3C%2FmxGraphModel%3E&lt;/span&gt;&lt;span style=&quot;font-style: normal ; font-weight: 400 ; letter-spacing: normal ; text-align: center ; text-indent: 0px ; text-transform: none ; word-spacing: 0px ; background-color: rgb(248 , 249 , 250) ; color: rgba(0 , 0 , 0 , 0) ; font-family: monospace ; font-size: 0px&quot;&gt;%3CmxGraphModel%3E%3Croot%3E%3CmxCell%20id%3D%220%22%2F%3E%3CmxCell%20id%3D%221%22%20parent%3D%220%22%2F%3E%3CmxCell%20id%3D%222%22%20value%3D%22A2.1.1%22%20style%3D%22text%3Bhtml%3D1%3BstrokeColor%3Dnone%3BfillColor%3Dnone%3Balign%3Dcenter%3BverticalAlign%3Dmiddle%3BwhiteSpace%3Dwrap%3Brounded%3D0%3B%22%20vertex%3D%221%22%20parent%3D%221%22%3E%3CmxGeometry%20x%3D%22220%22%20y%3D%22440%22%20width%3D%2240%22%20height%3D%2220%22%20as%3D%22geometry%22%2F%3E%3C%2FmxCell%3E%3C%2Froot%3E%3C%2FmxGraphModel%3E&lt;/span&gt;&lt;span style=&quot;font-style: normal ; font-weight: 400 ; letter-spacing: normal ; text-align: center ; text-indent: 0px ; text-transform: none ; word-spacing: 0px ; background-color: rgb(248 , 249 , 250) ; color: rgba(0 , 0 , 0 , 0) ; font-family: monospace ; font-size: 0px&quot;&gt;%3CmxGraphModel%3E%3Croot%3E%3CmxCell%20id%3D%220%22%2F%3E%3CmxCell%20id%3D%221%22%20parent%3D%220%22%2F%3E%3CmxCell%20id%3D%222%22%20value%3D%22A2.1.1%22%20style%3D%22text%3Bhtml%3D1%3BstrokeColor%3Dnone%3BfillColor%3Dnone%3Balign%3Dcenter%3BverticalAlign%3Dmiddle%3BwhiteSpace%3Dwrap%3Brounded%3D0%3B%22%20vertex%3D%221%22%20parent%3D%221%22%3E%3CmxGeometry%20x%3D%22220%22%20y%3D%22440%22%20width%3D%2240%22%20height%3D%2220%22%20as%3D%22geometry%22%2F%3E%3C%2FmxCell%3E%3C%2Froot%3E%3C%2FmxGraphModel%3E&lt;/span&gt;" style="text;whiteSpace=wrap;html=1;" vertex="1" parent="WIyWlLk6GJQsqaUBKTNV-1">
          <mxGeometry x="600" y="490" width="70" height="30" as="geometry" />
        </mxCell>
        <mxCell id="74G0N7CTCfDwMKJxQ2Cz-153" value="&lt;span style=&quot;color: rgb(0 , 0 , 0) ; font-family: &amp;#34;helvetica&amp;#34; ; font-size: 12px ; font-style: normal ; font-weight: 400 ; letter-spacing: normal ; text-align: center ; text-indent: 0px ; text-transform: none ; word-spacing: 0px ; background-color: rgb(248 , 249 , 250) ; display: inline ; float: none&quot;&gt;A2.1.2.3&lt;/span&gt;&lt;span style=&quot;font-style: normal ; font-weight: 400 ; letter-spacing: normal ; text-align: center ; text-indent: 0px ; text-transform: none ; word-spacing: 0px ; background-color: rgb(248 , 249 , 250) ; color: rgba(0 , 0 , 0 , 0) ; font-family: monospace ; font-size: 0px&quot;&gt;%3CmxGraphModel%3E%3Croot%3E%3CmxCell%20id%3D%220%22%2F%3E%3CmxCell%20id%3D%221%22%20parent%3D%220%22%2F%3E%3CmxCell%20id%3D%222%22%20value%3D%22A2.1.1%22%20style%3D%22text%3Bhtml%3D1%3BstrokeColor%3Dnone%3BfillColor%3Dnone%3Balign%3Dcenter%3BverticalAlign%3Dmiddle%3BwhiteSpace%3Dwrap%3Brounded%3D0%3B%22%20vertex%3D%221%22%20parent%3D%221%22%3E%3CmxGeometry%20x%3D%22220%22%20y%3D%22440%22%20width%3D%2240%22%20height%3D%2220%22%20as%3D%22geometry%22%2F%3E%3C%2FmxCell%3E%3C%2Froot%3E%3C%2FmxGraphModel%3E&lt;/span&gt;&lt;span style=&quot;font-style: normal ; font-weight: 400 ; letter-spacing: normal ; text-align: center ; text-indent: 0px ; text-transform: none ; word-spacing: 0px ; background-color: rgb(248 , 249 , 250) ; color: rgba(0 , 0 , 0 , 0) ; font-family: monospace ; font-size: 0px&quot;&gt;%3CmxGraphModel%3E%3Croot%3E%3CmxCell%20id%3D%220%22%2F%3E%3CmxCell%20id%3D%221%22%20parent%3D%220%22%2F%3E%3CmxCell%20id%3D%222%22%20value%3D%22A2.1.1%22%20style%3D%22text%3Bhtml%3D1%3BstrokeColor%3Dnone%3BfillColor%3Dnone%3Balign%3Dcenter%3BverticalAlign%3Dmiddle%3BwhiteSpace%3Dwrap%3Brounded%3D0%3B%22%20vertex%3D%221%22%20parent%3D%221%22%3E%3CmxGeometry%20x%3D%22220%22%20y%3D%22440%22%20width%3D%2240%22%20height%3D%2220%22%20as%3D%22geometry%22%2F%3E%3C%2FmxCell%3E%3C%2Froot%3E%3C%2FmxGraphModel%3E&lt;/span&gt;&lt;span style=&quot;font-style: normal ; font-weight: 400 ; letter-spacing: normal ; text-align: center ; text-indent: 0px ; text-transform: none ; word-spacing: 0px ; background-color: rgb(248 , 249 , 250) ; color: rgba(0 , 0 , 0 , 0) ; font-family: monospace ; font-size: 0px&quot;&gt;%3CmxGraphModel%3E%3Croot%3E%3CmxCell%20id%3D%220%22%2F%3E%3CmxCell%20id%3D%221%22%20parent%3D%220%22%2F%3E%3CmxCell%20id%3D%222%22%20value%3D%22A2.1.1%22%20style%3D%22text%3Bhtml%3D1%3BstrokeColor%3Dnone%3BfillColor%3Dnone%3Balign%3Dcenter%3BverticalAlign%3Dmiddle%3BwhiteSpace%3Dwrap%3Brounded%3D0%3B%22%20vertex%3D%221%22%20parent%3D%221%22%3E%3CmxGeometry%20x%3D%22220%22%20y%3D%22440%22%20width%3D%2240%22%20height%3D%2220%22%20as%3D%22geometry%22%2F%3E%3C%2FmxCell%3E%3C%2Froot%3E%3C%2FmxGraphModel%3E&lt;/span&gt;" style="text;whiteSpace=wrap;html=1;" vertex="1" parent="WIyWlLk6GJQsqaUBKTNV-1">
          <mxGeometry x="600" y="554" width="70" height="30" as="geometry" />
        </mxCell>
        <mxCell id="74G0N7CTCfDwMKJxQ2Cz-154" value="&lt;span style=&quot;color: rgb(0 , 0 , 0) ; font-family: &amp;#34;helvetica&amp;#34; ; font-size: 12px ; font-style: normal ; font-weight: 400 ; letter-spacing: normal ; text-align: center ; text-indent: 0px ; text-transform: none ; word-spacing: 0px ; background-color: rgb(248 , 249 , 250) ; display: inline ; float: none&quot;&gt;A2.1.2.4&lt;/span&gt;&lt;span style=&quot;font-style: normal ; font-weight: 400 ; letter-spacing: normal ; text-align: center ; text-indent: 0px ; text-transform: none ; word-spacing: 0px ; background-color: rgb(248 , 249 , 250) ; color: rgba(0 , 0 , 0 , 0) ; font-family: monospace ; font-size: 0px&quot;&gt;%3CmxGraphModel%3E%3Croot%3E%3CmxCell%20id%3D%220%22%2F%3E%3CmxCell%20id%3D%221%22%20parent%3D%220%22%2F%3E%3CmxCell%20id%3D%222%22%20value%3D%22A2.1.1%22%20style%3D%22text%3Bhtml%3D1%3BstrokeColor%3Dnone%3BfillColor%3Dnone%3Balign%3Dcenter%3BverticalAlign%3Dmiddle%3BwhiteSpace%3Dwrap%3Brounded%3D0%3B%22%20vertex%3D%221%22%20parent%3D%221%22%3E%3CmxGeometry%20x%3D%22220%22%20y%3D%22440%22%20width%3D%2240%22%20height%3D%2220%22%20as%3D%22geometry%22%2F%3E%3C%2FmxCell%3E%3C%2Froot%3E%3C%2FmxGraphModel%3E&lt;/span&gt;&lt;span style=&quot;font-style: normal ; font-weight: 400 ; letter-spacing: normal ; text-align: center ; text-indent: 0px ; text-transform: none ; word-spacing: 0px ; background-color: rgb(248 , 249 , 250) ; color: rgba(0 , 0 , 0 , 0) ; font-family: monospace ; font-size: 0px&quot;&gt;%3CmxGraphModel%3E%3Croot%3E%3CmxCell%20id%3D%220%22%2F%3E%3CmxCell%20id%3D%221%22%20parent%3D%220%22%2F%3E%3CmxCell%20id%3D%222%22%20value%3D%22A2.1.1%22%20style%3D%22text%3Bhtml%3D1%3BstrokeColor%3Dnone%3BfillColor%3Dnone%3Balign%3Dcenter%3BverticalAlign%3Dmiddle%3BwhiteSpace%3Dwrap%3Brounded%3D0%3B%22%20vertex%3D%221%22%20parent%3D%221%22%3E%3CmxGeometry%20x%3D%22220%22%20y%3D%22440%22%20width%3D%2240%22%20height%3D%2220%22%20as%3D%22geometry%22%2F%3E%3C%2FmxCell%3E%3C%2Froot%3E%3C%2FmxGraphModel%3E&lt;/span&gt;&lt;span style=&quot;font-style: normal ; font-weight: 400 ; letter-spacing: normal ; text-align: center ; text-indent: 0px ; text-transform: none ; word-spacing: 0px ; background-color: rgb(248 , 249 , 250) ; color: rgba(0 , 0 , 0 , 0) ; font-family: monospace ; font-size: 0px&quot;&gt;%3CmxGraphModel%3E%3Croot%3E%3CmxCell%20id%3D%220%22%2F%3E%3CmxCell%20id%3D%221%22%20parent%3D%220%22%2F%3E%3CmxCell%20id%3D%222%22%20value%3D%22A2.1.1%22%20style%3D%22text%3Bhtml%3D1%3BstrokeColor%3Dnone%3BfillColor%3Dnone%3Balign%3Dcenter%3BverticalAlign%3Dmiddle%3BwhiteSpace%3Dwrap%3Brounded%3D0%3B%22%20vertex%3D%221%22%20parent%3D%221%22%3E%3CmxGeometry%20x%3D%22220%22%20y%3D%22440%22%20width%3D%2240%22%20height%3D%2220%22%20as%3D%22geometry%22%2F%3E%3C%2FmxCell%3E%3C%2Froot%3E%3C%2FmxGraphModel%3E&lt;/span&gt;" style="text;whiteSpace=wrap;html=1;" vertex="1" parent="WIyWlLk6GJQsqaUBKTNV-1">
          <mxGeometry x="598.75" y="620" width="56.25" height="40" as="geometry" />
        </mxCell>
        <mxCell id="74G0N7CTCfDwMKJxQ2Cz-157" style="edgeStyle=none;rounded=0;orthogonalLoop=1;jettySize=auto;html=1;exitX=0.5;exitY=1;exitDx=0;exitDy=0;" edge="1" parent="WIyWlLk6GJQsqaUBKTNV-1" source="74G0N7CTCfDwMKJxQ2Cz-155" target="74G0N7CTCfDwMKJxQ2Cz-156">
          <mxGeometry relative="1" as="geometry" />
        </mxCell>
        <mxCell id="74G0N7CTCfDwMKJxQ2Cz-155" value="Start A3.1" style="rounded=1;whiteSpace=wrap;html=1;" vertex="1" parent="WIyWlLk6GJQsqaUBKTNV-1">
          <mxGeometry x="258.75" y="730" width="77.5" height="30" as="geometry" />
        </mxCell>
        <mxCell id="74G0N7CTCfDwMKJxQ2Cz-159" style="edgeStyle=none;rounded=0;orthogonalLoop=1;jettySize=auto;html=1;exitX=0.5;exitY=1;exitDx=0;exitDy=0;entryX=0.5;entryY=0;entryDx=0;entryDy=0;" edge="1" parent="WIyWlLk6GJQsqaUBKTNV-1" source="74G0N7CTCfDwMKJxQ2Cz-156" target="74G0N7CTCfDwMKJxQ2Cz-158">
          <mxGeometry relative="1" as="geometry" />
        </mxCell>
        <mxCell id="74G0N7CTCfDwMKJxQ2Cz-156" value="Draw rectangle" style="rounded=0;whiteSpace=wrap;html=1;" vertex="1" parent="WIyWlLk6GJQsqaUBKTNV-1">
          <mxGeometry x="218.75" y="790" width="157.5" height="30" as="geometry" />
        </mxCell>
        <mxCell id="74G0N7CTCfDwMKJxQ2Cz-161" style="edgeStyle=none;rounded=0;orthogonalLoop=1;jettySize=auto;html=1;exitX=0.5;exitY=1;exitDx=0;exitDy=0;entryX=0.5;entryY=0;entryDx=0;entryDy=0;" edge="1" parent="WIyWlLk6GJQsqaUBKTNV-1" source="74G0N7CTCfDwMKJxQ2Cz-158" target="74G0N7CTCfDwMKJxQ2Cz-160">
          <mxGeometry relative="1" as="geometry" />
        </mxCell>
        <mxCell id="74G0N7CTCfDwMKJxQ2Cz-158" value="Draw Circle" style="rounded=0;whiteSpace=wrap;html=1;" vertex="1" parent="WIyWlLk6GJQsqaUBKTNV-1">
          <mxGeometry x="218.75" y="850" width="157.5" height="30" as="geometry" />
        </mxCell>
        <mxCell id="74G0N7CTCfDwMKJxQ2Cz-160" value="End" style="ellipse;whiteSpace=wrap;html=1;" vertex="1" parent="WIyWlLk6GJQsqaUBKTNV-1">
          <mxGeometry x="255.62" y="900" width="80" height="40" as="geometry" />
        </mxCell>
        <mxCell id="74G0N7CTCfDwMKJxQ2Cz-162" value="A3.1.1" style="text;html=1;strokeColor=none;fillColor=none;align=center;verticalAlign=middle;whiteSpace=wrap;rounded=0;" vertex="1" parent="WIyWlLk6GJQsqaUBKTNV-1">
          <mxGeometry x="215.62" y="790" width="40" height="20" as="geometry" />
        </mxCell>
        <mxCell id="74G0N7CTCfDwMKJxQ2Cz-163" value="A3.1.2" style="text;html=1;strokeColor=none;fillColor=none;align=center;verticalAlign=middle;whiteSpace=wrap;rounded=0;" vertex="1" parent="WIyWlLk6GJQsqaUBKTNV-1">
          <mxGeometry x="210" y="850" width="40" height="20" as="geometry" />
        </mxCell>
        <mxCell id="74G0N7CTCfDwMKJxQ2Cz-166" style="edgeStyle=none;rounded=0;orthogonalLoop=1;jettySize=auto;html=1;exitX=0.5;exitY=1;exitDx=0;exitDy=0;" edge="1" parent="WIyWlLk6GJQsqaUBKTNV-1" source="74G0N7CTCfDwMKJxQ2Cz-164" target="74G0N7CTCfDwMKJxQ2Cz-165">
          <mxGeometry relative="1" as="geometry" />
        </mxCell>
        <mxCell id="74G0N7CTCfDwMKJxQ2Cz-164" value="Start A3.2" style="rounded=1;whiteSpace=wrap;html=1;" vertex="1" parent="WIyWlLk6GJQsqaUBKTNV-1">
          <mxGeometry x="506.88" y="730" width="77.5" height="30" as="geometry" />
        </mxCell>
        <mxCell id="74G0N7CTCfDwMKJxQ2Cz-169" style="edgeStyle=none;rounded=0;orthogonalLoop=1;jettySize=auto;html=1;exitX=0.5;exitY=1;exitDx=0;exitDy=0;entryX=0.5;entryY=0;entryDx=0;entryDy=0;" edge="1" parent="WIyWlLk6GJQsqaUBKTNV-1" source="74G0N7CTCfDwMKJxQ2Cz-165" target="74G0N7CTCfDwMKJxQ2Cz-167">
          <mxGeometry relative="1" as="geometry" />
        </mxCell>
        <mxCell id="74G0N7CTCfDwMKJxQ2Cz-165" value="Draw centre Square" style="rounded=0;whiteSpace=wrap;html=1;" vertex="1" parent="WIyWlLk6GJQsqaUBKTNV-1">
          <mxGeometry x="451.25" y="790" width="188.75" height="30" as="geometry" />
        </mxCell>
        <mxCell id="74G0N7CTCfDwMKJxQ2Cz-170" style="edgeStyle=none;rounded=0;orthogonalLoop=1;jettySize=auto;html=1;exitX=0.5;exitY=1;exitDx=0;exitDy=0;entryX=0.5;entryY=0;entryDx=0;entryDy=0;" edge="1" parent="WIyWlLk6GJQsqaUBKTNV-1" source="74G0N7CTCfDwMKJxQ2Cz-167" target="74G0N7CTCfDwMKJxQ2Cz-168">
          <mxGeometry relative="1" as="geometry" />
        </mxCell>
        <mxCell id="74G0N7CTCfDwMKJxQ2Cz-167" value="Draw left rectangle" style="rounded=0;whiteSpace=wrap;html=1;" vertex="1" parent="WIyWlLk6GJQsqaUBKTNV-1">
          <mxGeometry x="451.25" y="850" width="188.75" height="30" as="geometry" />
        </mxCell>
        <mxCell id="74G0N7CTCfDwMKJxQ2Cz-172" style="edgeStyle=none;rounded=0;orthogonalLoop=1;jettySize=auto;html=1;exitX=0.5;exitY=1;exitDx=0;exitDy=0;entryX=0.5;entryY=0;entryDx=0;entryDy=0;" edge="1" parent="WIyWlLk6GJQsqaUBKTNV-1" source="74G0N7CTCfDwMKJxQ2Cz-168" target="74G0N7CTCfDwMKJxQ2Cz-171">
          <mxGeometry relative="1" as="geometry" />
        </mxCell>
        <mxCell id="74G0N7CTCfDwMKJxQ2Cz-168" value="Draw right rectangle" style="rounded=0;whiteSpace=wrap;html=1;" vertex="1" parent="WIyWlLk6GJQsqaUBKTNV-1">
          <mxGeometry x="451.25" y="900" width="188.75" height="30" as="geometry" />
        </mxCell>
        <mxCell id="74G0N7CTCfDwMKJxQ2Cz-171" value="End" style="ellipse;whiteSpace=wrap;html=1;" vertex="1" parent="WIyWlLk6GJQsqaUBKTNV-1">
          <mxGeometry x="505.63" y="950" width="80" height="40" as="geometry" />
        </mxCell>
        <mxCell id="74G0N7CTCfDwMKJxQ2Cz-173" value="A3.2.1" style="text;html=1;strokeColor=none;fillColor=none;align=center;verticalAlign=middle;whiteSpace=wrap;rounded=0;" vertex="1" parent="WIyWlLk6GJQsqaUBKTNV-1">
          <mxGeometry x="451.25" y="790" width="40" height="20" as="geometry" />
        </mxCell>
        <mxCell id="74G0N7CTCfDwMKJxQ2Cz-175" value="A3.2.2" style="text;html=1;strokeColor=none;fillColor=none;align=center;verticalAlign=middle;whiteSpace=wrap;rounded=0;" vertex="1" parent="WIyWlLk6GJQsqaUBKTNV-1">
          <mxGeometry x="451.25" y="850" width="40" height="20" as="geometry" />
        </mxCell>
        <mxCell id="74G0N7CTCfDwMKJxQ2Cz-176" value="A3.2.3" style="text;html=1;strokeColor=none;fillColor=none;align=center;verticalAlign=middle;whiteSpace=wrap;rounded=0;" vertex="1" parent="WIyWlLk6GJQsqaUBKTNV-1">
          <mxGeometry x="453.75" y="900" width="40" height="20" as="geometry" />
        </mxCell>
        <mxCell id="74G0N7CTCfDwMKJxQ2Cz-183" style="edgeStyle=none;rounded=0;orthogonalLoop=1;jettySize=auto;html=1;exitX=0.5;exitY=1;exitDx=0;exitDy=0;entryX=0.5;entryY=0;entryDx=0;entryDy=0;" edge="1" parent="WIyWlLk6GJQsqaUBKTNV-1" source="74G0N7CTCfDwMKJxQ2Cz-178" target="74G0N7CTCfDwMKJxQ2Cz-179">
          <mxGeometry relative="1" as="geometry" />
        </mxCell>
        <mxCell id="74G0N7CTCfDwMKJxQ2Cz-178" value="Start A3.3" style="rounded=1;whiteSpace=wrap;html=1;" vertex="1" parent="WIyWlLk6GJQsqaUBKTNV-1">
          <mxGeometry x="768.75" y="745" width="77.5" height="30" as="geometry" />
        </mxCell>
        <mxCell id="74G0N7CTCfDwMKJxQ2Cz-184" style="edgeStyle=none;rounded=0;orthogonalLoop=1;jettySize=auto;html=1;exitX=0.5;exitY=1;exitDx=0;exitDy=0;entryX=0.5;entryY=0;entryDx=0;entryDy=0;" edge="1" parent="WIyWlLk6GJQsqaUBKTNV-1" source="74G0N7CTCfDwMKJxQ2Cz-179" target="74G0N7CTCfDwMKJxQ2Cz-180">
          <mxGeometry relative="1" as="geometry" />
        </mxCell>
        <mxCell id="74G0N7CTCfDwMKJxQ2Cz-179" value="Draw bottom left rectangle" style="rounded=0;whiteSpace=wrap;html=1;" vertex="1" parent="WIyWlLk6GJQsqaUBKTNV-1">
          <mxGeometry x="687.49" y="795" width="242.51" height="30" as="geometry" />
        </mxCell>
        <mxCell id="74G0N7CTCfDwMKJxQ2Cz-185" style="edgeStyle=none;rounded=0;orthogonalLoop=1;jettySize=auto;html=1;exitX=0.5;exitY=1;exitDx=0;exitDy=0;entryX=0.5;entryY=0;entryDx=0;entryDy=0;" edge="1" parent="WIyWlLk6GJQsqaUBKTNV-1" source="74G0N7CTCfDwMKJxQ2Cz-180" target="74G0N7CTCfDwMKJxQ2Cz-181">
          <mxGeometry relative="1" as="geometry" />
        </mxCell>
        <mxCell id="74G0N7CTCfDwMKJxQ2Cz-180" value="Draw top left rectangle" style="rounded=0;whiteSpace=wrap;html=1;" vertex="1" parent="WIyWlLk6GJQsqaUBKTNV-1">
          <mxGeometry x="687.49" y="845" width="242.51" height="30" as="geometry" />
        </mxCell>
        <mxCell id="74G0N7CTCfDwMKJxQ2Cz-186" style="edgeStyle=none;rounded=0;orthogonalLoop=1;jettySize=auto;html=1;exitX=0.5;exitY=1;exitDx=0;exitDy=0;entryX=0.5;entryY=0;entryDx=0;entryDy=0;" edge="1" parent="WIyWlLk6GJQsqaUBKTNV-1" source="74G0N7CTCfDwMKJxQ2Cz-181" target="74G0N7CTCfDwMKJxQ2Cz-182">
          <mxGeometry relative="1" as="geometry" />
        </mxCell>
        <mxCell id="74G0N7CTCfDwMKJxQ2Cz-181" value="Draw bottom right rectangle" style="rounded=0;whiteSpace=wrap;html=1;" vertex="1" parent="WIyWlLk6GJQsqaUBKTNV-1">
          <mxGeometry x="687.5" y="895" width="242.51" height="30" as="geometry" />
        </mxCell>
        <mxCell id="74G0N7CTCfDwMKJxQ2Cz-188" style="edgeStyle=none;rounded=0;orthogonalLoop=1;jettySize=auto;html=1;exitX=0.5;exitY=1;exitDx=0;exitDy=0;" edge="1" parent="WIyWlLk6GJQsqaUBKTNV-1" source="74G0N7CTCfDwMKJxQ2Cz-182" target="74G0N7CTCfDwMKJxQ2Cz-187">
          <mxGeometry relative="1" as="geometry" />
        </mxCell>
        <mxCell id="74G0N7CTCfDwMKJxQ2Cz-182" value="Draw top right&amp;nbsp; rectangle" style="rounded=0;whiteSpace=wrap;html=1;" vertex="1" parent="WIyWlLk6GJQsqaUBKTNV-1">
          <mxGeometry x="687.49" y="940" width="242.51" height="30" as="geometry" />
        </mxCell>
        <mxCell id="74G0N7CTCfDwMKJxQ2Cz-187" value="End" style="ellipse;whiteSpace=wrap;html=1;" vertex="1" parent="WIyWlLk6GJQsqaUBKTNV-1">
          <mxGeometry x="768.75" y="990" width="80" height="40" as="geometry" />
        </mxCell>
        <mxCell id="74G0N7CTCfDwMKJxQ2Cz-197" style="edgeStyle=none;rounded=0;orthogonalLoop=1;jettySize=auto;html=1;exitX=0.5;exitY=1;exitDx=0;exitDy=0;entryX=0.5;entryY=0;entryDx=0;entryDy=0;" edge="1" parent="WIyWlLk6GJQsqaUBKTNV-1" source="74G0N7CTCfDwMKJxQ2Cz-189" target="74G0N7CTCfDwMKJxQ2Cz-190">
          <mxGeometry relative="1" as="geometry" />
        </mxCell>
        <mxCell id="74G0N7CTCfDwMKJxQ2Cz-189" value="Start A3.4" style="rounded=1;whiteSpace=wrap;html=1;" vertex="1" parent="WIyWlLk6GJQsqaUBKTNV-1">
          <mxGeometry x="1007.5" y="740" width="77.5" height="30" as="geometry" />
        </mxCell>
        <mxCell id="74G0N7CTCfDwMKJxQ2Cz-192" style="edgeStyle=none;rounded=0;orthogonalLoop=1;jettySize=auto;html=1;exitX=0.5;exitY=1;exitDx=0;exitDy=0;entryX=0.5;entryY=0;entryDx=0;entryDy=0;" edge="1" parent="WIyWlLk6GJQsqaUBKTNV-1" source="74G0N7CTCfDwMKJxQ2Cz-190" target="74G0N7CTCfDwMKJxQ2Cz-191">
          <mxGeometry relative="1" as="geometry" />
        </mxCell>
        <mxCell id="74G0N7CTCfDwMKJxQ2Cz-190" value="Draw left Circle" style="rounded=0;whiteSpace=wrap;html=1;" vertex="1" parent="WIyWlLk6GJQsqaUBKTNV-1">
          <mxGeometry x="955" y="790" width="182.5" height="30" as="geometry" />
        </mxCell>
        <mxCell id="74G0N7CTCfDwMKJxQ2Cz-194" style="edgeStyle=none;rounded=0;orthogonalLoop=1;jettySize=auto;html=1;exitX=0.5;exitY=1;exitDx=0;exitDy=0;entryX=0.5;entryY=0;entryDx=0;entryDy=0;" edge="1" parent="WIyWlLk6GJQsqaUBKTNV-1" source="74G0N7CTCfDwMKJxQ2Cz-191" target="74G0N7CTCfDwMKJxQ2Cz-193">
          <mxGeometry relative="1" as="geometry" />
        </mxCell>
        <mxCell id="74G0N7CTCfDwMKJxQ2Cz-191" value="Draw right Circle" style="rounded=0;whiteSpace=wrap;html=1;" vertex="1" parent="WIyWlLk6GJQsqaUBKTNV-1">
          <mxGeometry x="955" y="840" width="185" height="30" as="geometry" />
        </mxCell>
        <mxCell id="74G0N7CTCfDwMKJxQ2Cz-193" value="End" style="ellipse;whiteSpace=wrap;html=1;" vertex="1" parent="WIyWlLk6GJQsqaUBKTNV-1">
          <mxGeometry x="1006.25" y="890" width="80" height="40" as="geometry" />
        </mxCell>
        <mxCell id="74G0N7CTCfDwMKJxQ2Cz-195" value="A3.4.2" style="text;html=1;strokeColor=none;fillColor=none;align=center;verticalAlign=middle;whiteSpace=wrap;rounded=0;" vertex="1" parent="WIyWlLk6GJQsqaUBKTNV-1">
          <mxGeometry x="955" y="840" width="40" height="20" as="geometry" />
        </mxCell>
        <mxCell id="74G0N7CTCfDwMKJxQ2Cz-196" value="A3.4.1" style="text;html=1;strokeColor=none;fillColor=none;align=center;verticalAlign=middle;whiteSpace=wrap;rounded=0;" vertex="1" parent="WIyWlLk6GJQsqaUBKTNV-1">
          <mxGeometry x="955" y="790" width="40" height="20" as="geometry" />
        </mxCell>
        <mxCell id="74G0N7CTCfDwMKJxQ2Cz-198" value="Start A3.5" style="rounded=1;whiteSpace=wrap;html=1;" vertex="1" parent="WIyWlLk6GJQsqaUBKTNV-1">
          <mxGeometry x="1256.75" y="740" width="77.5" height="30" as="geometry" />
        </mxCell>
        <mxCell id="74G0N7CTCfDwMKJxQ2Cz-199" value="Draw left upside down triangle" style="rounded=0;whiteSpace=wrap;html=1;" vertex="1" parent="WIyWlLk6GJQsqaUBKTNV-1">
          <mxGeometry x="1168.5" y="790" width="251.5" height="30" as="geometry" />
        </mxCell>
        <mxCell id="74G0N7CTCfDwMKJxQ2Cz-200" value="Draw right upside down triangle" style="rounded=0;whiteSpace=wrap;html=1;" vertex="1" parent="WIyWlLk6GJQsqaUBKTNV-1">
          <mxGeometry x="1167.5" y="840" width="252.5" height="30" as="geometry" />
        </mxCell>
        <mxCell id="74G0N7CTCfDwMKJxQ2Cz-201" value="End" style="ellipse;whiteSpace=wrap;html=1;" vertex="1" parent="WIyWlLk6GJQsqaUBKTNV-1">
          <mxGeometry x="1254.25" y="895" width="80" height="40" as="geometry" />
        </mxCell>
      </root>
    </mxGraphModel>
  </diagram>
</mxfile>
